<svg xmlns="http://www.w3.org/2000/svg" xmlns:xlink="http://www.w3.org/1999/xlink" viewBox="-4.5 1 25 25" version="1.1" style="fill:#eeeeeeff; text-align:center" role="img">
<style type="text/css">
	.st0{clip-path:url(#SVGID_2_);}
	.st1{clip-path:url(#SVGID_4_);}
	.st2{clip-path:url(#SVGID_6_);}
</style>


<g class="currentLayer" style=""><title>Layer 1</title><g id="svg_1" class="">
	<defs transform="translate(1.7999999523162842,0.10000000149011612) translate(-17.341039657592773,13.872832298278809) ">
		<path id="SVGID_1_" d="M23.6,8.6L20,12.8c-0.1,0.2,0,0.4,0.2,0.4h7.4c0.2,0,0.3-0.3,0.2-0.4l-3.7-4.2c-0.1-0.1-0.1-0.1-0.2-0.1    C23.8,8.5,23.7,8.6,23.6,8.6"/>
	</defs>
	<clipPath id="SVGID_2_" transform="translate(1.7999999523162842,0.10000000149011612) translate(-17.341039657592773,13.872832298278809) ">
		<use xlink:href="#SVGID_1_" style="overflow:visible;" id="svg_2"/>
	</clipPath>
	<rect x="2.658961057662964" y="20.772832490503788" class="st0" width="11.300000190734863" height="8.100000381469727" id="svg_3"/>
</g><g class="" id="svg_11">
	<defs id="svg_13" transform="translate(1.7999999523162842,0.10000000149011612) translate(-17.341039657592773,13.294797897338867) ">
		<path id="SVGID_1_" d="M23.6,8.6L20,12.8c-0.1,0.2,0,0.4,0.2,0.4h7.4c0.2,0,0.3-0.3,0.2-0.4l-3.7-4.2c-0.1-0.1-0.1-0.1-0.2-0.1    C23.8,8.5,23.7,8.6,23.6,8.6"/>
	</defs>
	<clipPath id="svg_15" transform="translate(1.7999999523162842,0.10000000149011612) translate(-17.341039657592773,13.294797897338867) ">
		<use xlink:href="#SVGID_1_" style="overflow:visible;" id="svg_2"/>
	</clipPath>
	<rect x="2.658961057662964" y="20.194799043238163" class="st0" width="11.300000190734863" height="8.100000381469727" id="svg_17"/>
</g><g id="svg_4" class="">
	<defs transform="translate(1.7999999523162842,0.10000000149011612) translate(-17.341039657592773,13.294797897338867) ">
		<path id="SVGID_3_" d="M21.1,7.1c0,0.8,0.4,1.5,0.9,2.1c0,0,0.1,0.1,0.1,0.1c0,0,0.1,0,0.1,0c0,0,0-0.1,0.1-0.1    c0.1-0.1,0.2-0.3,0.3-0.3c0,0,0,0,0,0c0,0,0-0.1,0-0.1c0,0,0,0,0,0c-0.5-0.4-0.8-1-0.8-1.6C21.8,6,22.7,5,23.8,5    C25,5,25.9,6,25.9,7.1c0,0.7-0.3,1.3-0.8,1.6c0,0,0,0.1,0,0.1c0,0,0,0,0,0c0,0,0,0,0,0c0.1,0.1,0.2,0.3,0.3,0.3c0,0,0,0,0.1,0.1    c0,0,0.1,0,0.1,0c0,0,0.1-0.1,0.1-0.1c0.6-0.5,0.9-1.2,0.9-2.1c0-1.5-1.2-2.7-2.7-2.7S21.1,5.6,21.1,7.1 M19.4,7.1    c0,1.4,0.6,2.6,1.6,3.4c0,0,0,0,0,0h0c0,0,0.1,0,0.1,0c0,0,0,0,0,0c0.1-0.2,0.2-0.3,0.3-0.4c0,0,0,0,0.1-0.1c0,0,0-0.1,0-0.1    c0,0,0,0,0,0c0,0,0,0,0,0c-0.8-0.7-1.4-1.7-1.4-2.9c0-2.1,1.7-3.8,3.8-3.8c2.1,0,3.8,1.7,3.8,3.8c0,1.2-0.5,2.2-1.4,2.9    c0,0,0,0,0,0c0,0,0,0,0,0.1c0,0,0,0,0,0c0,0,0,0,0,0.1c0.1,0.1,0.2,0.2,0.3,0.4c0,0,0,0,0,0h0c0,0,0,0,0.1,0c0,0,0,0,0,0    c1-0.8,1.6-2,1.6-3.4c0-2.5-2-4.4-4.4-4.4S19.4,4.6,19.4,7.1 M17.7,7.1c0,1.9,0.9,3.6,2.2,4.7c0,0,0,0,0,0c0,0,0.1,0,0.1,0    c0,0,0,0,0,0c0.1-0.2,0.2-0.3,0.3-0.4c0,0,0,0,0,0c0,0,0-0.1,0-0.1c0,0,0,0,0,0c0,0,0,0,0,0c-1.2-1-2-2.5-2-4.2    c0-3,2.5-5.5,5.5-5.5s5.5,2.5,5.5,5.5c0,1.7-0.8,3.2-2,4.2c0,0,0,0,0,0h0c0,0,0,0.1,0,0.1c0,0,0,0,0,0c0,0,0,0,0,0    c0.1,0.1,0.2,0.2,0.4,0.4c0,0,0,0,0,0c0,0,0,0,0.1,0c0,0,0,0,0,0C29.1,10.7,30,9,30,7.1c0-3.4-2.8-6.2-6.2-6.2    C20.4,0.9,17.7,3.7,17.7,7.1"/>
	</defs>
	<clipPath id="SVGID_4_" transform="translate(1.7999999523162842,0.10000000149011612) translate(-17.341039657592773,13.294797897338867) ">
		<use xlink:href="#SVGID_3_" id="svg_5"/>
	</clipPath>
	<rect x="0.45896029472351074" y="12.59479770809412" class="st1" width="15.699999809265137" height="14.300000190734863" id="svg_6"/>
</g><g id="svg_7" class="">
	<g id="svg_8">
		<defs transform="translate(1.7999999523162842,0.10000000149011612) ">
			<path id="SVGID_5_" d="M6.3,8.4l-3.9,4.4c-0.1,0.2,0,0.4,0.2,0.4h7.8c0.2,0,0.3-0.3,0.2-0.4L6.7,8.4C6.7,8.3,6.6,8.3,6.5,8.3     C6.4,8.3,6.3,8.3,6.3,8.4 M1.8,1.7C1.2,1.7,1,1.8,0.7,1.9C0.5,2,0.3,2.2,0.2,2.4C0.1,2.7,0,2.9,0,3.5v5c0,0.7,0.1,0.9,0.2,1.1     c0.1,0.2,0.3,0.4,0.5,0.5c0.2,0.1,0.5,0.2,1.1,0.2h1.5l0.6-0.7H1.6c-0.3,0-0.5,0-0.6-0.1C1,9.5,0.9,9.4,0.8,9.2     C0.7,9.1,0.7,9,0.7,8.7V3.3c0-0.3,0-0.5,0.1-0.6c0.1-0.1,0.1-0.2,0.3-0.3c0.1-0.1,0.2-0.1,0.6-0.1h9.7c0.3,0,0.5,0,0.6,0.1     c0.1,0.1,0.2,0.1,0.3,0.3c0.1,0.1,0.1,0.2,0.1,0.6v5.4c0,0.3,0,0.5-0.1,0.6c-0.1,0.1-0.1,0.2-0.3,0.3c-0.1,0.1-0.2,0.1-0.6,0.1     H9.1l0.6,0.7h1.5c0.7,0,0.9-0.1,1.1-0.2c0.2-0.1,0.4-0.3,0.5-0.5C12.9,9.4,13,9.1,13,8.5v-5c0-0.7-0.1-0.9-0.2-1.1     c-0.1-0.2-0.3-0.4-0.5-0.5c-0.2-0.1-0.5-0.2-1.1-0.2C11.2,1.7,1.8,1.7,1.8,1.7z"/>
		</defs>
		<clipPath id="SVGID_6_" transform="translate(1.7999999523162842,0.10000000149011612) ">
			<use xlink:href="#SVGID_5_" style="overflow:visible;" id="svg_9"/>
		</clipPath>
		<rect x="0" y="0" class="st2" width="16.600000381469727" height="15.199999809265137" id="svg_10"/>
	</g>
</g></g></svg>
