<?xml version="1.0" encoding="UTF-8" standalone="no"?>
<svg
   xmlns:dc="http://purl.org/dc/elements/1.1/"
   xmlns:cc="http://creativecommons.org/ns#"
   xmlns:rdf="http://www.w3.org/1999/02/22-rdf-syntax-ns#"
   xmlns:svg="http://www.w3.org/2000/svg"
   xmlns="http://www.w3.org/2000/svg"
   id="svg4582"
   version="1.1"
   viewBox="0 0 24 24"
   role="img">
  <metadata
     id="metadata4588">
    <rdf:RDF>
      <cc:Work
         rdf:about="">
        <dc:format>image/svg+xml</dc:format>
        <dc:type
           rdf:resource="http://purl.org/dc/dcmitype/StillImage" />
        <dc:title>Google Chrome icon</dc:title>
      </cc:Work>
    </rdf:RDF>
  </metadata>
  <defs
     id="defs4586">
    <clipPath
       clipPathUnits="userSpaceOnUse"
       id="clipPath33670">
      <path
         d="m 619.944,203.948 59.797,0 0,10.213 -59.797,0 0,-10.213 z"
         id="path33672" />
    </clipPath>
  </defs>
  <title
     id="title4578">Google Chrome icon</title>
  <g
     id="Group_2"
     data-name="Group 2"
     transform="matrix(0.13981848,0,0,0.13981848,-141.80033,-98.38669)">
    <rect
       style="fill:none"
       y="0"
       x="0"
       id="Rectangle_1"
       data-name="Rectangle 1"
       width="174"
       height="43"
       transform="translate(1013,768)" />
    <g
       style="fill:#eeeeeeff;fill-opacity:1"
       transform="matrix(0.34579505,0,0,0.34579505,915.43366,665.91273)"
       id="layer1">
      <g
         style="fill:#eeeeeeff;fill-opacity:1"
         id="g33668"
         clip-path="url(#clipPath33670)"
         transform="matrix(8.2780765,0,0,-8.2780765,-4845.7031,2087.972)">
        <g
           style="fill:#eeeeeeff;fill-opacity:1"
           id="g33674"
           transform="translate(623.8155,205.7036)">
          <path
             d="m 0,0 c -1.121,0 -2.028,0.937 -2.028,2.102 0,1.143 0.907,2.094 2.028,2.094 0.745,0 1.49,-0.347 1.807,-0.981 C 1.829,3.171 1.858,3.112 1.858,3.038 V 1.18 C 1.858,1.143 1.836,1.062 1.821,1.04 1.475,0.406 0.767,0 0,0 M 3.68,-1.6 V 5.774 H 1.858 V 5.155 c -0.509,0.494 -1.202,0.766 -2.057,0.766 -2.087,0 -3.672,-1.696 -3.672,-3.819 0,-2.132 1.585,-3.85 3.672,-3.85 0.855,0 1.548,0.288 2.057,0.782 V -1.6 Z m 7.912,0 v 3.989 c 0,1.962 -1.526,3.532 -3.473,3.532 -1.954,0 -3.473,-1.57 -3.473,-3.532 V -1.6 h 1.821 v 3.989 c 0,0.966 0.679,1.704 1.652,1.704 0.966,0 1.652,-0.738 1.652,-1.704 V -1.6 Z M 16.223,0 c -1.121,0 -2.028,0.937 -2.028,2.102 0,1.143 0.907,2.094 2.028,2.094 0.745,0 1.453,-0.369 1.807,-0.981 0.022,-0.044 0.051,-0.103 0.051,-0.177 V 1.172 C 18.081,1.135 18.059,1.062 18.045,1.04 17.698,0.406 16.99,0 16.223,0 m 3.68,-1.6 V 7.986 H 18.081 V 5.155 c -0.508,0.494 -1.202,0.789 -2.057,0.789 -2.087,0 -3.672,-1.719 -3.672,-3.842 0,-2.132 1.585,-3.85 3.672,-3.85 0.855,0 1.549,0.288 2.057,0.782 V -1.6 Z m 2.787,0 v 3.938 c 0,1.165 0.612,1.784 1.777,1.784 v 1.799 c -2.345,0 -3.598,-1.246 -3.598,-3.583 V -1.6 Z m 5.759,1.688 c -1.106,0 -2.005,0.9 -2.005,2.014 0,1.106 0.899,2.005 2.005,2.005 1.121,0 2.014,-0.899 2.014,-2.005 0,-1.114 -0.893,-2.014 -2.014,-2.014 m 0,-1.836 c 2.132,0 3.857,1.718 3.857,3.85 0,2.123 -1.725,3.819 -3.857,3.819 -2.123,0 -3.849,-1.696 -3.849,-3.819 0,-2.132 1.726,-3.85 3.849,-3.85 m 5.597,8.082 c 0.583,0 1.055,0.48 1.055,1.062 0,0.59 -0.472,1.062 -1.055,1.062 -0.582,0 -1.054,-0.472 -1.054,-1.062 0,-0.582 0.472,-1.062 1.054,-1.062 m 0.907,-0.56 H 33.131 V -1.6 h 1.822 z M 39.651,0 c -1.121,0 -2.028,0.937 -2.028,2.102 0,1.143 0.907,2.094 2.028,2.094 0.745,0 1.452,-0.369 1.806,-0.981 0.023,-0.044 0.052,-0.103 0.052,-0.177 V 1.165 C 41.509,1.128 41.487,1.062 41.472,1.04 41.126,0.406 40.418,0 39.651,0 M 43.33,-1.6 V 7.986 H 41.509 V 5.155 C 41,5.649 40.307,5.921 39.452,5.921 c -2.087,0 -3.673,-1.696 -3.673,-3.819 0,-2.132 1.586,-3.857 3.673,-3.857 0.855,0 1.548,0.295 2.057,0.789 V -1.6 Z"
             style="fill:#eeeeeeff;fill-opacity:1;fill-rule:nonzero;stroke:none"
             id="path33676" />
        </g>
        <g
           style="fill:#eeeeeeff;fill-opacity:1"
           id="g33678"
           transform="translate(676.7471,204.1033)">
          <path
             d="M 0,0 2.994,7.382 H 1.49 L -0.959,0.981 H -0.45 L -2.905,7.374 H -4.454 L -1.46,0 Z m -4.815,-0.088 0.007,1.312 H -4.97 c -1.069,0 -1.822,0.642 -1.822,1.726 v 3.207 h 1.925 V 7.374 H -6.792 V 9.373 H -8.126 V 2.95 c 0,-1.91 1.239,-3.038 3.156,-3.038 z"
             style="fill:#eeeeeeff;fill-opacity:1;fill-rule:nonzero;stroke:none"
             id="path33680" />
        </g>
      </g>
    </g>
  </g>
</svg>
