<?xml version="1.0" encoding="UTF-8" standalone="no"?>
<svg
   xmlns:dc="http://purl.org/dc/elements/1.1/"
   xmlns:cc="http://creativecommons.org/ns#"
   xmlns:rdf="http://www.w3.org/1999/02/22-rdf-syntax-ns#"
   xmlns:svg="http://www.w3.org/2000/svg"
   xmlns="http://www.w3.org/2000/svg"
   id="svg846"
   version="1.1"
   viewBox="0 0 24 24"
   role="img">
  <metadata
     id="metadata852">
    <rdf:RDF>
      <cc:Work
         rdf:about="">
        <dc:format>image/svg+xml</dc:format>
        <dc:type
           rdf:resource="http://purl.org/dc/dcmitype/StillImage" />
        <dc:title></dc:title>
      </cc:Work>
    </rdf:RDF>
  </metadata>
  <defs
     id="defs850" />
  <g
     style="fill:#eeeeeeff;fill-opacity:1"
     transform="matrix(0.15900643,0,0,0.15900643,1.0206059,0.13016988)"
     id="g941">
    <path
       style="fill:#eeeeeeff;fill-opacity:1"
       d="M 48.8,32.2 C 29.3,28.6 13.9,32.4 7.7,43 c -4.6,7.9 -3.3,18.5 3.2,29.7 0.5,1 1.8,1.3 2.7,0.7 1,-0.5 1.3,-1.8 0.7,-2.7 C 8.5,60.6 7.4,51.5 11.1,45 16.2,36.2 30,32.8 48,36.1 c 1.1,0.2 2.1,-0.5 2.3,-1.6 0.2,-1.1 -0.4,-2.1 -1.5,-2.3 z M 21.1,86.4 c 7.9,8.7 18.1,16.8 29.8,23.5 28.3,16.3 58.4,20.7 73.3,10.6 0.9,-0.6 1.1,-1.9 0.5,-2.8 -0.6,-0.9 -1.9,-1.1 -2.8,-0.5 -13.3,9.1 -41.9,4.9 -69,-10.7 C 41.6,100 31.6,92.1 24,83.7 c -0.7,-0.8 -2,-0.9 -2.8,-0.1 -0.8,0.7 -0.9,2 -0.1,2.8 z"
       id="path933" />
    <path
       style="fill:#eeeeeeff;fill-opacity:1"
       d="M 119.4,84 C 132.2,68.9 136.6,53.7 130.5,43.1 126,35.3 116.4,31.2 103.8,31 c -1.1,0 -2,0.9 -2,2 0,1.1 0.9,2 2,2 11.4,0.1 19.6,3.7 23.3,10.1 5.1,8.8 1.1,22.4 -10.7,36.3 -0.7,0.8 -0.6,2.1 0.2,2.8 0.8,0.7 2.1,0.6 2.8,-0.2 z M 86.6,32.8 C 75.1,35.3 62.8,40.1 51,46.9 21.7,63.8 2.7,88.7 5.3,106.7 c 0.2,1.1 1.2,1.8 2.3,1.7 1.1,-0.2 1.8,-1.2 1.7,-2.3 C 6.9,90.1 25,66.6 53,50.4 64.5,43.8 76.4,39.1 87.5,36.7 c 1.1,-0.2 1.8,-1.3 1.5,-2.4 -0.3,-1 -1.3,-1.7 -2.4,-1.5 z"
       id="path935" />
    <path
       style="fill:#eeeeeeff;fill-opacity:1"
       d="m 39.3,119.2 c 6.7,18.6 17.6,30.1 29.9,30.1 9,0 17.2,-6.1 23.7,-16.9 0.6,-0.9 0.3,-2.2 -0.7,-2.7 -0.9,-0.6 -2.2,-0.3 -2.7,0.7 -5.8,9.7 -12.9,14.9 -20.3,14.9 -10.2,0 -19.9,-10.2 -26.1,-27.5 -0.4,-1 -1.5,-1.6 -2.6,-1.2 -1.1,0.4 -1.6,1.6 -1.2,2.6 z m 61,-3.6 c 3.5,-11 5.3,-23.8 5.3,-37.1 0,-33.1 -11.6,-61.7 -28.1,-69 -1,-0.4 -2.2,0 -2.6,1 -0.4,1 0,2.2 1,2.6 14.7,6.5 25.7,33.6 25.7,65.4 0,12.9 -1.8,25.2 -5.1,35.9 -0.3,1.1 0.3,2.2 1.3,2.5 1,0.3 2.1,-0.3 2.5,-1.3 z m 37.6,-2 c 0,-5.3 -4.3,-9.6 -9.6,-9.6 -5.3,0 -9.6,4.3 -9.6,9.6 0,5.3 4.3,9.6 9.6,9.6 5.4,0 9.6,-4.3 9.6,-9.6 z m -4,0 c 0,3.1 -2.5,5.6 -5.6,5.6 -3.1,0 -5.6,-2.5 -5.6,-5.6 0,-3.1 2.5,-5.6 5.6,-5.6 3.1,0 5.6,2.5 5.6,5.6 z M 9.8,123.2 c 5.3,0 9.6,-4.3 9.6,-9.6 0,-5.3 -4.3,-9.6 -9.6,-9.6 -5.3,0 -9.6,4.3 -9.6,9.6 0,5.3 4.3,9.6 9.6,9.6 z m 0,-4 c -3.1,0 -5.6,-2.5 -5.6,-5.6 0,-3.1 2.5,-5.6 5.6,-5.6 3.1,0 5.6,2.5 5.6,5.6 0,3.1 -2.5,5.6 -5.6,5.6 z"
       id="path937" />
    <path
       style="fill:#eeeeeeff;fill-opacity:1"
       d="m 69.2,19.2 c 5.3,0 9.6,-4.3 9.6,-9.6 0,-5.3 -4.3,-9.6 -9.6,-9.6 -5.3,0 -9.6,4.3 -9.6,9.6 0,5.3 4.3,9.6 9.6,9.6 z m 0,-4 c -3.1,0 -5.6,-2.5 -5.6,-5.6 0,-3.1 2.5,-5.6 5.6,-5.6 3.1,0 5.6,2.5 5.6,5.6 0,3.1 -2.6,5.6 -5.6,5.6 z m 1.4,70.1 c -3.7,0.8 -7.4,-1.6 -8.2,-5.3 -0.8,-3.7 1.6,-7.4 5.3,-8.2 3.7,-0.8 7.4,1.6 8.2,5.3 0.8,3.7 -1.5,7.4 -5.3,8.2 z"
       id="path939" />
  </g>
</svg>
