<?xml version="1.0" encoding="UTF-8"?>
<!-- Created with Inkscape (http://www.inkscape.org/) -->
<svg width="174.5mm" height="214.19mm" version="1.1" viewBox="0 0 174.5 214.19" xmlns="http://www.w3.org/2000/svg">
 <g transform="translate(-20.038 -35.69)" fill="#fff">
  <g transform="matrix(2.7449 0 0 2.7449 -85.149 -350.17)" stroke-width="1.3876">
   <path d="m86.924 174.18c0.76187 1.785-0.7828 4.13-6.9764 10.591-6.6392 6.926-8.4989 8.1368-11.243 7.3198-2.7445-0.81694-3.6394-2.8476-5.4102-12.277-2.7008-14.381-1.7826-15.2 12.338-10.997 7.1551 2.1298 10.613 3.772 11.292 5.3625z" fill-opacity=".97647"/>
   <path d="m86.924 174.18c0.76187 1.785-0.7828 4.13-6.9764 10.591-6.6392 6.926-8.4989 8.1368-11.243 7.3198-2.7445-0.81694-3.6394-2.8476-5.4102-12.277-2.7008-14.381-1.7826-15.2 12.338-10.997 7.1551 2.1298 10.613 3.772 11.292 5.3625z"/>
  </g>
  <path d="m65.443 249.88c41.956-48.419-66.314-188.64 42.736-170.49 13.37 2.0745 24.81 3.0053 44.423 1.0556 27.287-16.434 24.389-21.254 41.935-37.842-89.539 1.0855-55.66 6.5968-104.91-1.8478-16.512-2.8313-40.863-9.5527-56.498-0.50262-16.979 9.8276-13.036 40.651-11.832 56.937 3.5063 47.424 11.217 116.4 44.142 152.69"/>
  <path d="m65.443 249.88c41.956-48.419-66.314-188.64 42.736-170.49 13.37 2.0745 24.81 3.0053 44.423 1.0556 27.287-16.434 24.389-21.254 41.935-37.842-89.539 1.0855-55.66 6.5968-104.91-1.8478-16.512-2.8313-40.863-9.5527-56.498-0.50262-16.979 9.8276-13.036 40.651-11.832 56.937 3.5063 47.424 11.217 116.4 44.142 152.69"/>
 </g>
</svg>
