<?xml version="1.0" encoding="UTF-8" standalone="no"?>
<svg
   xmlns:dc="http://purl.org/dc/elements/1.1/"
   xmlns:cc="http://creativecommons.org/ns#"
   xmlns:rdf="http://www.w3.org/1999/02/22-rdf-syntax-ns#"
   xmlns:svg="http://www.w3.org/2000/svg"
   xmlns="http://www.w3.org/2000/svg"
   id="svg4582"
   version="1.1"
   viewBox="0 0 24 24"
   role="img">
  <metadata
     id="metadata4588">
    <rdf:RDF>
      <cc:Work
         rdf:about="">
        <dc:format>image/svg+xml</dc:format>
        <dc:type
           rdf:resource="http://purl.org/dc/dcmitype/StillImage" />
        <dc:title>Google Chrome icon</dc:title>
      </cc:Work>
    </rdf:RDF>
  </metadata>
  <defs
     id="defs4586" />
  <title
     id="title4578">Google Chrome icon</title>
  <g
     id="Group_2"
     data-name="Group 2"
     transform="matrix(0.13981848,0,0,0.13981848,-141.80033,-98.38669)">
    <g
       transform="matrix(1.0296094,0,0,1.0296094,-32.570358,-23.128226)"
       id="g5094">
      <rect
         transform="translate(1013,768)"
         height="43"
         width="174"
         data-name="Rectangle 1"
         id="Rectangle_1"
         x="0"
         y="0"
         style="fill:none" />
      <path
         style="fill:#eeeeeeff;fill-opacity:1;stroke:none;stroke-width:10;stroke-miterlimit:4;stroke-dasharray:none;stroke-opacity:1"
         d="M 2.9941406,5.7304688 V 5.8964844 H 2.4023438 c 0,0 -0.394065,0.032738 -0.6992188,0.3378906 C 1.4325203,6.5049797 1.2851562,7.2285156 1.2851562,7.2285156 v 0.9726563 l -0.73632808,0.021484 c -0.05558,0.00163 -0.0992908,0.047936 -0.0976562,0.1035157 l 0.0136719,0.4394531 c 0.001635,0.05558 0.0479356,0.099291 0.10351563,0.097656 L 1.2851562,8.8417969 v 4.0546871 c 0,0.05509 0.044521,0.09961 0.099609,0.09961 h 0.765625 c 0.055088,0 0.099609,-0.04452 0.099609,-0.09961 V 8.8144531 l 1.3378906,-0.039063 c 0.05558,-0.00163 0.099291,-0.047936 0.097656,-0.1035156 L 3.671875,8.2324219 C 3.670245,8.1768419 3.623939,8.1331309 3.5683594,8.1347659 L 2.25,8.1738281 V 7.0234375 c 0,0 0.092703,-0.3168004 0.2128906,-0.4160156 0.1156159,-0.09544 0.4316406,-0.125 0.4316406,-0.125 0,0 0.2432471,0.00866 0.3632813,0.027344 0.1182445,0.018404 0.3496094,0.083984 0.3496094,0.083984 0,0 0.055553,0.0034 0.074219,-0.013672 0.02142,-0.019587 0.021484,-0.083984 0.021484,-0.083984 V 6.0351562 c 0,0 0.018667,-0.1966108 -0.5234375,-0.3007812 C 3.1190764,5.722728 2.9941405,5.730465 2.9941405,5.730465 Z"
         transform="matrix(7.1521304,0,0,7.1521304,1014.1744,703.67444)"
         id="rect4989" />
      <path
         style="fill:#eeeeeeff;fill-opacity:1;stroke:none;stroke-width:10;stroke-miterlimit:4;stroke-dasharray:none;stroke-opacity:1"
         d="M 4.9882812,6.0351562 A 0.58004856,0.59662148 0 0 0 4.4082031,6.6308594 0.58004856,0.59662148 0 0 0 4.9882812,7.2285156 0.58004856,0.59662148 0 0 0 5.5683594,6.6308594 0.58004856,0.59662148 0 0 0 4.9882812,6.0351562 Z M 4.6503906,8.1777344 c -0.067086,0 -0.1210937,0.054008 -0.1210937,0.1210937 V 12.875 c 0,0.06709 0.054008,0.121094 0.1210937,0.121094 h 0.6972656 c 0.067086,0 0.1210938,-0.05401 0.1210938,-0.121094 V 8.2988281 c 0,-0.067086 -0.054008,-0.1210937 -0.1210938,-0.1210937 z"
         transform="matrix(7.1521304,0,0,7.1521304,1014.1744,703.67444)"
         id="rect4997" />
      <path
         style="fill:#eeeeeeff;fill-opacity:1;stroke:none;stroke-width:1px;stroke-linecap:butt;stroke-linejoin:miter;stroke-opacity:1"
         d="m 8.8125,8.0546875 c 0,0 -0.4188668,0.1160528 -0.6875,0.3242187 C 7.8793389,8.5692719 7.640625,8.8671875 7.640625,8.8671875 V 8.3203125 C 7.632935,8.2847065 7.621626,8.2462925 7.595703,8.2207035 7.570634,8.1959475 7.498047,8.1777345 7.498047,8.1777345 H 6.96875 c 0,0 -0.067403,0.018426 -0.089844,0.042969 -0.025601,0.028 -0.039062,0.1074219 -0.039062,0.1074219 v 4.5585936 c 0,0 0.00786,0.05347 0.025391,0.07226 0.020623,0.02212 0.082031,0.03711 0.082031,0.03711 h 0.693359 c 0,0 0.044081,-0.01425 0.058594,-0.03125 0.015128,-0.01772 0.023437,-0.06641 0.023437,-0.06641 V 9.3867188 c 0,0 0.2334495,-0.2244519 0.46875,-0.3554688 C 8.4007984,8.9146624 8.78125,8.8671875 8.78125,8.8671875 h 0.6835938 c 0,0 0.050439,-0.00288 0.066406,-0.019531 0.014877,-0.015493 0.015625,-0.0625 0.015625,-0.0625 V 8.1777344 c 0,0 -0.019176,-0.06019 -0.041016,-0.082031 -0.02184,-0.021841 -0.082031,-0.041016 -0.082031,-0.041016 z"
         transform="matrix(7.1521304,0,0,7.1521304,1014.1744,703.67444)"
         id="path5025" />
      <path
         style="fill:#eeeeeeff;fill-opacity:1;stroke:none;stroke-width:10;stroke-miterlimit:4;stroke-dasharray:none;stroke-opacity:1"
         d="m 16.316406,6.6757812 c 0,0 -0.06079,0.054168 -0.07813,0.089844 -0.02039,0.04192 -0.02539,0.1367187 -0.02539,0.1367188 l -0.111329,1.1640624 -0.816406,0.087891 c -0.05558,0.00163 -0.09929,0.045982 -0.09766,0.1015625 l 0.01367,0.4414062 c 0.0016,0.05558 0.04794,0.099291 0.103516,0.097656 l 0.716796,-0.021484 v 3.2246099 c 0,0.03102 0.147625,0.478855 0.47461,0.707031 0.253788,0.177098 0.646965,0.221624 0.886718,0.220703 0.301694,-0.0012 0.770045,-0.03495 0.908204,-0.111328 0.194655,-0.10761 0.162072,-0.145884 0.179687,-0.246094 0.04732,-0.269166 0.01778,-0.440071 -0.04102,-0.482421 -0.119781,-0.08627 -0.7034,0.156489 -1.025391,0.04101 -0.08237,-0.02954 -0.199517,-0.06579 -0.279297,-0.146484 -0.09047,-0.0915 -0.138672,-0.226563 -0.138672,-0.226563 V 8.7441406 l 1.337891,-0.039063 c 0.05558,-0.00163 0.09929,-0.047936 0.09766,-0.1035156 l -0.01367,-0.4394531 c -0.0016,-0.05558 -0.04598,-0.099291 -0.101562,-0.097656 l -1.324219,-0.00586 -0.0059,-1.3828126 z"
         transform="matrix(7.1521304,0,0,7.1521304,1014.1744,703.67444)"
         id="rect4989-3" />
      <path
         style="fill:#eeeeeeff;fill-opacity:1;stroke:none;stroke-width:1px;stroke-linecap:butt;stroke-linejoin:miter;stroke-opacity:1"
         d="m 11.9375,7.8203125 c -0.520628,0.015195 -1.121066,0.1651601 -1.650391,0.7519531 -0.5126441,0.568302 -0.5859371,1.8437504 -0.5859371,1.8437504 0,0 0.097938,1.358645 0.5253901,1.832031 0.419162,0.4642 0.864792,0.722591 1.921876,0.757812 1.639357,0.05462 1.65039,-0.490234 1.65039,-0.490234 v -0.326172 c 0,0 -0.03283,-0.112455 -0.07617,-0.146484 -0.03888,-0.03052 -0.144531,-0.03711 -0.144531,-0.03711 0,0 -0.341842,0.192294 -0.529297,0.244141 -0.226785,0.06273 -0.701172,0.07813 -0.701172,0.07813 0,0 -1.060528,0.01817 -1.396484,-0.455078 -0.501964,-0.70708 -0.294924,-1.121099 -0.294924,-1.121099 h 3 c 0,0 0.12149,0.0083 0.175781,-0.107422 0.04722,-0.100626 0.05664,-0.328125 0.05664,-0.328125 V 9.6875 c 0,0 -0.02552,-0.7596948 -0.419922,-1.2441406 C 13.098874,7.989043 12.372853,7.8076058 11.9375,7.8203125 Z M 11.89844,8.6035156 C 13.17786,8.5488564 12.958984,10.0625 12.958984,10.0625 h -2.296875 c 0,0 -0.179935,-1.3984793 1.236329,-1.4589844 z"
         transform="matrix(7.1521304,0,0,7.1521304,1014.1744,703.67444)"
         id="path5065" />
      <path
         style="fill:#eeeeeeff;fill-opacity:1;stroke:none;stroke-width:7.1521306px;stroke-linecap:butt;stroke-linejoin:miter;stroke-opacity:1"
         d="m 1150.2874,761.89147 c 0,0 -0.4223,-0.0829 -0.788,0.29907 -0.3424,0.3576 -0.1207,1.08379 -0.1207,1.08379 l 12.1998,30.66648 c 0.6088,1.67567 1.2175,2.40145 1.8263,2.68022 h 5.65 c 1.0633,-0.47596 1.2884,-1.42687 1.765,-2.76891 l 11.9969,-30.14643 c 0.2364,-0.82825 0.4165,-1.68442 -0.6884,-2.06566 l -4.4387,0.051 c -0.6354,0.10407 -0.8237,0.43164 -1.1518,0.81509 l -9.656,27.47719 h -1.3829 l -9.5804,-27.57027 c 0,0 -0.2002,-0.39924 -0.3762,-0.52156 -0.2305,-0.16015 -0.8117,-0.2235 -0.8117,-0.2235 z"
         id="path5078" />
      <path
         style="fill:#eeeeeeff;fill-opacity:1;stroke:none;stroke-width:7.1521306px;stroke-linecap:butt;stroke-linejoin:miter;stroke-opacity:1"
         d="m 1140.3716,810.88762 c 0.8541,0.0255 2.7882,-0.22112 3.7177,-0.27494 2.0024,-0.11596 3.9703,-0.71015 5.9762,-0.70426 1.5583,0.005 4.6395,0.5744 4.6395,0.5744 0,0 1.6043,0.1429 2.1816,0.8325 0.7392,0.88289 0.4692,1.46505 0.4703,2.22219 0,2.30884 -0.8324,4.54624 -1.4137,6.78071 -0.3023,1.16179 -1.4886,3.6164 -2.3055,5.39238 -0.6043,1.31376 -0.7078,2.78921 -0.308,2.95374 0.9553,0.39315 3.0028,0.87546 8.4022,-9.6442 1.3861,-2.70052 2.0052,-5.96246 2.2239,-8.51935 0.1745,-2.04087 0.1649,-3.61228 -0.4324,-4.23879 -0.8264,-0.86672 -2.8289,-1.50015 -6.0005,-1.70904 -1.9932,-0.13128 -4.6884,-0.22997 -7.0965,0.28998 -12.0159,2.5944 -11.1277,5.40203 -11.1277,5.40203 0.021,0.51665 0.8474,0.54431 1.0729,0.64265 z"
         id="path5080" />
      <path
         style="fill:#eeeeeeff;fill-opacity:1;stroke:none;stroke-width:7.1521306px;stroke-linecap:butt;stroke-linejoin:miter;stroke-opacity:1"
         d="m 1149.2997,815.19087 c -7.7055,2.51516 -20.9296,10.54613 -54.9557,9.7273 -27.2239,-0.65513 -58.439,-17.62936 -58.439,-17.62936 -0.9378,-0.52007 -3.1273,0.89717 -2.333,1.60637 0,0 22.3095,23.01406 58.4761,24.83044 38.9608,1.9567 59.8585,-15.82886 59.8585,-15.82886 2.0924,-1.46073 -0.4249,-3.42433 -2.6069,-2.70589 z"
         id="path5082" />
    </g>
  </g>
</svg>
