<!DOCTYPE svg PUBLIC "-//W3C//DTD SVG 20010904//EN" "http://www.w3.org/TR/2001/REC-SVG-20010904/DTD/svg10.dtd">
<svg version="1.0" xmlns="http://www.w3.org/2000/svg" viewBox="0 0 6220 5070" role="img" width="5cm" height="5cm">
<g id="layer101" style="fill: #eeeeee" stroke="none">
 <path d="M2455 5028 c-34 -12 -91 -52 -118 -83 -20 -23 -50 -76 -45 -80 9 -8 103 -45 114 -45 7 0 16 9 19 20 11 35 72 73 123 77 83 7 152 -58 152 -145 l0 -43 -27 21 c-61 44 -178 43 -257 -4 -87 -51 -129 -125 -134 -238 -6 -127 37 -218 132 -273 82 -48 197 -50 259 -5 l27 21 0 -21 c0 -18 6 -20 65 -20 l65 0 0 308 c0 341 -3 365 -62 436 -47 58 -116 86 -208 85 -41 0 -88 -5 -105 -11z m175 -390 c59 -41 75 -72 75 -148 0 -76 -16 -107 -75 -147 -95 -65 -215 17 -215 147 0 130 120 212 215 148z"/>
 <path d="M4350 4798 c-126 -14 -254 -106 -309 -222 -88 -189 -30 -423 134 -536 116 -80 293 -93 416 -33 35 18 77 46 94 63 l29 30 -39 40 -38 39 -43 -38 c-72 -63 -181 -80 -286 -45 -72 24 -148 101 -174 174 -74 215 65 424 281 424 83 0 142 -23 204 -79 l42 -38 34 33 c19 19 35 39 35 46 0 20 -80 85 -135 110 -64 30 -158 42 -245 32z"/>
 <path d="M4952 4799 c-57 -11 -102 -38 -129 -77 -61 -91 -26 -220 73 -267 67 -32 182 -36 266 -9 18 5 20 3 14 -21 -12 -46 -36 -73 -81 -91 -59 -22 -109 -12 -152 31 l-34 34 -49 -21 -49 -20 14 -28 c35 -67 118 -110 215 -110 104 0 185 46 221 124 16 36 19 68 19 244 l0 202 -50 0 -50 0 0 -34 0 -34 -30 28 c-47 44 -124 63 -198 49z m145 -124 c40 -24 62 -52 77 -101 6 -18 0 -24 -34 -38 -107 -43 -230 3 -230 84 0 26 30 62 60 73 35 13 86 6 127 -18z"/>
 <path d="M5472 4787 c-18 -7 -48 -25 -67 -40 -42 -33 -81 -102 -62 -110 7 -3 29 -12 49 -21 l37 -16 20 33 c28 46 70 67 130 67 42 0 57 -5 76 -25 53 -52 17 -92 -110 -124 -50 -12 -106 -33 -126 -46 -62 -40 -86 -123 -54 -185 48 -93 210 -131 323 -74 46 23 92 73 92 100 0 5 -20 17 -44 27 l-45 19 -29 -33 c-23 -25 -38 -32 -78 -36 -86 -9 -145 40 -106 87 11 13 53 29 117 45 55 14 111 34 125 44 110 80 88 231 -42 286 -44 18 -158 19 -206 2z"/>
 <path d="M6044 4789 c-25 -6 -54 -23 -75 -45 l-34 -35 -3 -185 -3 -184 -50 0 -49 0 0 -50 0 -50 50 0 50 0 0 -85 0 -85 55 0 55 0 0 85 0 85 65 0 65 0 0 50 0 50 -65 0 -65 0 0 158 c0 146 2 160 20 177 14 13 30 16 58 13 38 -6 39 -5 55 40 10 25 14 49 10 53 -14 13 -97 18 -139 8z"/>
 <path d="M335 4767 c-162 -62 -268 -189 -297 -356 -37 -216 91 -426 308 -502 88 -30 246 -24 326 13 67 31 128 75 128 92 0 7 -19 31 -42 53 l-43 42 -39 -29 c-127 -96 -307 -74 -419 50 -76 85 -100 206 -61 322 24 74 118 167 193 191 173 55 347 -29 385 -185 l6 -28 -145 0 -145 0 0 -70 0 -70 209 0 210 0 7 46 c9 61 -11 174 -41 239 -32 66 -118 148 -192 183 -51 23 -73 27 -173 29 -100 3 -123 0 -175 -20z"/>
 <path d="M1229 4779 c-97 -15 -183 -80 -222 -168 -32 -71 -29 -181 7 -255 49 -100 144 -157 262 -158 132 -1 231 62 280 178 20 46 23 174 5 219 -52 132 -188 207 -332 184z m125 -142 c46 -26 86 -93 86 -145 0 -20 -9 -55 -21 -79 -73 -151 -281 -105 -296 65 -9 91 69 182 157 182 19 0 53 -10 74 -23z"/>
 <path d="M1879 4779 c-97 -15 -183 -80 -222 -168 -32 -71 -29 -181 7 -255 49 -100 144 -157 262 -158 132 -1 231 62 280 178 20 46 23 174 5 219 -52 132 -188 207 -332 184z m125 -142 c46 -26 86 -93 86 -145 0 -20 -9 -55 -21 -79 -73 -151 -281 -105 -296 65 -9 91 69 182 157 182 19 0 53 -10 74 -23z"/>
 <path d="M2930 4345 l0 -445 65 0 65 0 0 445 0 445 -65 0 -65 0 0 -445z"/>
 <path d="M3389 4779 c-148 -23 -249 -158 -237 -314 14 -163 121 -267 277 -267 115 0 201 60 250 176 l20 46 -37 16 c-20 8 -75 31 -122 51 -47 19 -118 48 -158 65 l-73 30 23 25 c32 35 71 53 113 53 43 0 69 -12 112 -52 l31 -30 49 33 c26 18 49 33 51 35 10 7 -24 47 -65 79 -64 48 -147 68 -234 54z m69 -378 c36 -15 67 -32 69 -38 2 -6 -9 -18 -24 -28 -37 -25 -106 -24 -141 2 -37 27 -72 81 -72 109 l0 24 51 -21 c29 -11 81 -32 117 -48z"/>
 <path d="M1050 3139 l0 -292 73 6 c71 6 182 41 235 74 46 29 142 114 142 126 0 7 10 22 23 34 45 44 92 170 103 281 l7 62 -292 0 -291 0 0 -291z"/>
 <path d="M1980 3378 c0 -120 -70 -368 -110 -393 -5 -3 -10 -14 -10 -22 0 -9 -20 -43 -45 -74 -25 -32 -45 -59 -45 -62 0 -6 -112 -117 -119 -117 -3 0 -26 -18 -51 -40 -24 -22 -48 -40 -52 -40 -5 0 -41 -18 -80 -41 -40 -22 -90 -44 -113 -49 -22 -5 -65 -15 -95 -24 -30 -9 -90 -19 -132 -22 l-78 -7 0 -200 0 -199 88 7 c108 8 216 29 307 59 39 13 82 26 96 30 15 3 59 24 98 46 39 22 76 40 84 40 7 0 22 8 33 18 10 10 48 38 84 62 87 59 222 196 298 303 133 187 226 448 239 675 l6 102 -201 0 -202 0 0 -52z"/>
 <path d="M2732 3302 c-7 -70 -23 -174 -37 -231 -14 -56 -25 -110 -25 -120 0 -9 -16 -55 -36 -101 -19 -47 -42 -103 -50 -125 -16 -43 -75 -147 -133 -234 -20 -30 -41 -63 -47 -73 -7 -11 -30 -39 -53 -62 -23 -23 -41 -45 -41 -49 0 -15 -182 -183 -250 -232 -94 -67 -253 -165 -267 -165 -8 0 -45 -16 -84 -36 -39 -19 -103 -43 -142 -54 -40 -10 -97 -25 -127 -33 -104 -28 -175 -40 -280 -46 l-105 -6 -3 -194 -2 -194 112 6 c203 12 311 27 413 58 55 17 118 35 140 41 22 6 67 22 100 35 161 67 219 93 224 101 3 5 39 27 79 48 40 21 87 51 105 66 18 16 37 28 42 28 6 0 32 20 60 45 27 25 53 45 58 45 11 0 287 279 287 290 0 5 20 32 45 61 25 29 45 57 45 61 0 5 13 26 29 46 67 86 241 445 241 499 0 11 9 46 20 79 43 124 70 293 70 438 l0 136 -188 0 -188 0 -12 -128z"/>
 <path d="M3480 3230 l0 -200 660 0 660 0 0 -1300 0 -1300 -1680 0 -1680 0 0 280 0 280 -195 0 -195 0 0 -332 0 -333 28 -60 c16 -33 36 -66 45 -74 10 -7 17 -20 17 -27 0 -15 115 -93 170 -115 52 -21 3568 -21 3620 0 55 22 170 100 170 115 0 7 7 20 17 27 9 8 29 41 45 74 l28 60 0 1405 0 1405 -28 60 c-16 33 -36 66 -45 74 -10 7 -17 20 -17 27 0 7 -28 32 -61 54 -123 81 -51 75 -846 78 l-713 3 0 -201z"/>
 </g>

</svg>
