<!DOCTYPE svg PUBLIC "-//W3C//DTD SVG 20010904//EN" "http://www.w3.org/TR/2001/REC-SVG-20010904/DTD/svg10.dtd">
<svg version="1.0" xmlns="http://www.w3.org/2000/svg" width="832px" height="832px" viewBox="0 0 8320 8320" preserveAspectRatio="xMidYMid meet">
<g id="layer101" fill="#ffffff" stroke="none">
 <path d="M3129 6337 c-128 -44 -237 -157 -274 -282 -19 -66 -21 -185 -5 -246 19 -69 67 -152 118 -201 36 -34 1363 -995 2052 -1485 245 -175 385 -422 406 -720 4 -51 9 -93 11 -93 9 0 165 120 212 165 137 128 228 297 261 481 16 90 8 306 -15 389 -23 85 -107 249 -164 321 -27 33 -73 81 -102 106 -113 95 -2106 1522 -2169 1552 -57 27 -78 31 -165 34 -84 2 -111 -1 -166 -21z"/>
 <path d="M2690 5120 c-115 -42 -208 -129 -262 -245 l-23 -50 -3 -792 c-2 -781 -2 -793 18 -854 39 -115 123 -208 238 -262 63 -30 74 -32 182 -32 109 0 119 2 183 32 90 43 175 125 218 211 l34 67 3 784 c3 857 4 833 -56 944 -36 66 -120 142 -199 180 -61 28 -79 32 -173 34 -86 3 -115 0 -160 -17z"/>
 <path d="M4045 3399 c-418 -303 -788 -570 -821 -595 -121 -87 -237 -125 -384 -125 -145 0 -276 43 -383 124 -26 21 -49 37 -52 37 -14 0 -2 -139 19 -222 52 -205 180 -390 352 -509 73 -50 205 -107 300 -130 76 -18 111 -20 234 -17 130 4 155 8 239 37 51 17 121 47 155 66 33 19 365 254 736 523 l675 487 24 70 c31 94 39 251 17 354 -26 121 -85 231 -174 321 -69 69 -149 131 -169 130 -5 0 -350 -248 -768 -551z"/>
 </g>

</svg>