<?xml version="1.0" encoding="UTF-8"?>
<svg width="512" height="512" version="1.1" viewBox="0 0 512 512" xmlns="http://www.w3.org/2000/svg" xmlns:cc="http://creativecommons.org/ns#" xmlns:dc="http://purl.org/dc/elements/1.1/" xmlns:rdf="http://www.w3.org/1999/02/22-rdf-syntax-ns#">
 <title>Sailfin Icon</title>
 <metadata>
  <rdf:RDF>
   <cc:Work rdf:about="">
    <dc:format>image/svg+xml</dc:format>
    <dc:type rdf:resource="http://purl.org/dc/dcmitype/StillImage"/>
    <dc:title>Sailfin Icon</dc:title>
    <dc:creator>
     <cc:Agent>
      <dc:title>Chris Josten</dc:title>
     </cc:Agent>
    </dc:creator>
    <dc:relation>Sailfin</dc:relation>
    <dc:date/>
    <dc:rights>
     <cc:Agent>
      <dc:title/>
     </cc:Agent>
    </dc:rights>
    <cc:license rdf:resource="http://creativecommons.org/licenses/by-sa/4.0/"/>
   </cc:Work>
   <cc:License rdf:about="http://creativecommons.org/licenses/by-sa/4.0/">
    <cc:permits rdf:resource="http://creativecommons.org/ns#Reproduction"/>
    <cc:permits rdf:resource="http://creativecommons.org/ns#Distribution"/>
    <cc:requires rdf:resource="http://creativecommons.org/ns#Notice"/>
    <cc:requires rdf:resource="http://creativecommons.org/ns#Attribution"/>
    <cc:permits rdf:resource="http://creativecommons.org/ns#DerivativeWorks"/>
    <cc:requires rdf:resource="http://creativecommons.org/ns#ShareAlike"/>
   </cc:License>
  </rdf:RDF>
 </metadata>
 <g fill="#fff">
  <path d="m256 0c-128 0-256 128-256 256v256h512v-256c0-128-128-256-256-256zm0 64c96 0 192 96 192 192v192h-384v-192c0-96 96-192 192-192z"/>
  <path d="m191.08 384v-106s-16.591 32-42.079 32v-72c25.514-0.0258 42.079 32 42.079 32v-105c36.196 0 174.92 72.509 174.92 109s-138.73 110-174.92 110z"/>
 </g>
</svg>
