<?xml version="1.0" encoding="UTF-8" standalone="no"?>
<svg
   id="svg"
   version="1.1"
   width="400"
   height="400"
   viewBox="0, 0, 400,400"
   sodipodi:docname="sonixd.svg"
   inkscape:version="1.1.1 (3bf5ae0d25, 2021-09-20)"
   xmlns:inkscape="http://www.inkscape.org/namespaces/inkscape"
   xmlns:sodipodi="http://sodipodi.sourceforge.net/DTD/sodipodi-0.dtd"
   xmlns="http://www.w3.org/2000/svg"
   xmlns:svg="http://www.w3.org/2000/svg">
  <defs
     id="defs67" />
  <sodipodi:namedview
     id="namedview65"
     pagecolor="#ffffff"
     bordercolor="#666666"
     borderopacity="1.0"
     inkscape:pageshadow="2"
     inkscape:pageopacity="0.0"
     inkscape:pagecheckerboard="0"
     showgrid="false"
     inkscape:zoom="1.6596171"
     inkscape:cx="127.43904"
     inkscape:cy="183.17478"
     inkscape:window-width="1362"
     inkscape:window-height="740"
     inkscape:window-x="0"
     inkscape:window-y="0"
     inkscape:window-maximized="1"
     inkscape:current-layer="svgg" />
  <g
     id="svgg">
    <path
       id="path0"
       d="m 178.23254,19.59396 c -0.197,0.755 -0.546,0.8 -6.136,0.8 -5.575,0 -5.941,0.047 -6.18,0.8 -0.23,0.726 -0.605,0.8 -4.027,0.8 -3.506,0 -3.773,0.057 -3.773,0.8 0,0.733 -0.267,0.8 -3.2,0.8 -2.578,0 -3.2,0.117 -3.2,0.6 0,0.426 -0.436,0.602 -1.5,0.605 -2.089,0.008 -3.3,0.39 -3.3,1.042 0,0.405 -0.599,0.553 -2.237,0.553 -1.901,0 -2.269,0.12 -2.447,0.8 -0.177,0.675 -0.546,0.8 -2.363,0.8 -1.886,0 -2.153,0.099 -2.153,0.8 0,0.705 -0.267,0.8 -2.237,0.8 -1.901,0 -2.269,0.12 -2.447,0.8 -0.164,0.627 -0.546,0.8 -1.763,0.8 -1.286,0 -1.553,0.137 -1.553,0.8 0,0.701 -0.267,0.8 -2.153,0.8 -1.817,0 -2.186,0.125 -2.363,0.8 -0.16,0.613 -0.546,0.8 -1.647,0.8 -1.17,0 -1.437,0.148 -1.437,0.8 0,0.667 -0.267,0.8 -1.6,0.8 -1.333,0 -1.6,0.133 -1.6,0.8 0,0.667 -0.267,0.8 -1.6,0.8 -1.333,0 -1.6,0.133 -1.6,0.8 0,0.667 -0.267,0.8 -1.6,0.8 -1.333,0 -1.6,0.133 -1.6,0.8 0,0.648 -0.267,0.8 -1.4,0.8 -0.929,0 -1.4,0.187 -1.4,0.557 0,0.306 -0.45,0.669 -1,0.807 -0.55,0.138 -1,0.518 -1,0.844 0,0.41 -0.43,0.592 -1.4,0.592 -1.133,0 -1.4,0.152 -1.4,0.8 0,0.652 -0.267,0.8 -1.437,0.8 -1.101,0 -1.487,0.187 -1.647,0.8 -0.116,0.443 -0.546,0.8 -0.963,0.8 -0.486,0 -0.753,0.283 -0.753,0.8 0,0.652 -0.266998,0.8 -1.436998,0.8 -1.101,0 -1.487,0.187 -1.647,0.8 -0.116,0.443 -0.546,0.8 -0.963,0.8 -0.486,0 -0.753,0.283 -0.753,0.8 0,0.628 -0.267,0.8 -1.237,0.8 -0.901,0 -1.295,0.217 -1.447,0.8 -0.115,0.44 -0.536,0.8 -0.936,0.8 -0.399,0 -0.84,0.36 -0.98,0.8 -0.14,0.44 -0.512,0.8 -0.827,0.8 -0.315,0 -0.573,0.36 -0.573,0.8 0,0.652 -0.267,0.8 -1.437,0.8 -1.101,0 -1.487,0.187 -1.647,0.8 -0.116,0.443 -0.546,0.8 -0.963,0.8 -0.414,0 -0.753,0.27 -0.753,0.6 0,0.33 -0.287,0.6 -0.637,0.6 -0.351,0 -0.732,0.36 -0.847,0.8 -0.116,0.443 -0.546,0.8 -0.963,0.8 -0.486,0 -0.753,0.283 -0.753,0.8 0,0.533 -0.267,0.8 -0.8,0.8 -0.533,0 -0.8,0.267 -0.8,0.8 0,0.533 -0.267,0.8 -0.8,0.8 -0.533,0 -0.8,0.267 -0.8,0.8 0,0.628 -0.267,0.8 -1.237,0.8 -0.882,0 -1.295,0.22 -1.437,0.763 -0.11,0.42 -0.543,0.853 -0.963,0.963 -0.42,0.109 -0.763,0.465 -0.763,0.79 0,0.325 -0.36,0.685 -0.8,0.8 -0.44,0.115 -0.8,0.475 -0.8,0.8 0,0.325 -0.36,0.685 -0.8,0.8 -0.44,0.115 -0.8,0.475 -0.8,0.8 0,0.325 -0.36,0.685 -0.8,0.8 -0.44,0.115 -0.8,0.475 -0.8,0.8 0,0.325 -0.36,0.685 -0.8,0.8 -0.44,0.115 -0.8,0.475 -0.8,0.8 0,0.325 -0.36,0.685 -0.8,0.8 -0.583,0.152 -0.8,0.546 -0.8,1.447 0,0.97 -0.172,1.237 -0.8,1.237 -0.533,0 -0.8,0.267 -0.8,0.8 0,0.533 -0.267,0.8 -0.8,0.8 -0.533,0 -0.8,0.267 -0.8,0.8 0,0.533 -0.267,0.8 -0.8,0.8 -0.517,0 -0.8,0.267 -0.8,0.753 0,0.417 -0.357,0.847 -0.8,0.963 -0.44,0.115 -0.8,0.496 -0.8,0.847 0,0.35 -0.268,0.637 -0.595,0.637 -0.385,0 -0.686,0.565 -0.851,1.6 -0.155,0.965 -0.474,1.6 -0.805,1.6 -0.302,0 -0.549,0.36 -0.549,0.8 0,0.533 -0.267,0.8 -0.8,0.8 -0.533,0 -0.8,0.267 -0.8,0.8 0,0.533 -0.267,0.8 -0.8,0.8 -0.648,0 -0.8,0.267 -0.8,1.4 0,1.133 -0.152,1.4 -0.8,1.4 -0.517,0 -0.8,0.267 -0.8,0.753 0,0.417 -0.357,0.847 -0.8,0.963 -0.613,0.16 -0.8,0.546 -0.8,1.647 0,1.17 -0.148,1.437 -0.8,1.437 -0.533,0 -0.8,0.267 -0.8,0.800004 0,0.533 -0.267,0.8 -0.8,0.8 -0.667,0 -0.8,0.266996 -0.8,1.599996 0,1.333 -0.133,1.6 -0.8,1.6 -0.517,0 -0.8,0.267 -0.8,0.753 0,0.417 -0.357,0.847 -0.8,0.963 -0.613,0.16 -0.8,0.546 -0.8,1.647 0,1.17 -0.148,1.437 -0.8,1.437 -0.642,0 -0.8,0.267 -0.8,1.353 0,1.017 -0.199,1.406 -0.8,1.563 -0.613,0.16 -0.8,0.546 -0.8,1.647 0,1.011 -0.178,1.437 -0.6,1.437 -0.33,0 -0.6,0.339 -0.6,0.753 0,0.417 -0.357,0.847 -0.8,0.963 -0.606,0.159 -0.8,0.546 -0.8,1.6 0,1.054 -0.194,1.441 -0.8,1.6 -0.606,0.159 -0.8,0.546 -0.8,1.6 0,1.054 -0.194,1.441 -0.8,1.6 -0.665,0.174 -0.8,0.546 -0.8,2.2 0,1.654 -0.135,2.026 -0.8,2.2 -0.606,0.159 -0.8,0.546 -0.8,1.6 0,1.054 -0.194,1.441 -0.8,1.6 -0.599,0.157 -0.8,0.546 -0.8,1.55 0,0.908 -0.258,1.503 -0.8,1.841 -0.622,0.389 -0.8,0.933 -0.8,2.45 0,1.613 -0.138,1.986 -0.8,2.159 -0.67,0.175 -0.8,0.546 -0.8,2.284 0,1.738 -0.13,2.109 -0.8,2.284 -0.675,0.177 -0.8,0.546 -0.8,2.363 0,1.566 -0.151,2.153 -0.553,2.153 -0.637,0 -1.034,1.203 -1.042,3.156 -0.003,0.753 -0.279,1.556 -0.62,1.806 -0.408,0.298 -0.698,1.425 -0.858,3.344 -0.172,2.049 -0.401,2.894 -0.785,2.894 -0.418,0 -0.542,0.87 -0.542,3.8 0,3.533 -0.056,3.8 -0.8,3.8 -0.756,0 -0.8,0.267 -0.8,4.8 0,4.533 -0.044,4.8 -0.8,4.8 -0.792,0 -0.8,0.267 -0.8,26.4 0,26.133 0.008,26.4 0.8,26.4 0.759,0 0.8,0.267 0.8,5.237 0,4.901 0.051,5.251 0.8,5.447 0.715,0.187 0.8,0.546 0.8,3.363 0,2.536 0.117,3.153 0.6,3.153 0.439,0 0.601,0.458 0.604,1.7 0.007,2.727 0.447,4.7 1.048,4.7 0.399,0 0.548,0.61 0.548,2.237 0,1.858 0.128,2.271 0.756,2.435 0.62,0.163 0.785,0.667 0.922,2.811 0.118,1.854 0.363,2.758 0.844,3.109 0.422,0.309 0.678,1.045 0.678,1.952 0,1.189 0.147,1.456 0.8,1.456 0.705,0 0.8,0.267 0.8,2.237 0,1.901 0.12,2.269 0.8,2.447 0.623,0.163 0.8,0.546 0.8,1.73 0,1.909 0.328,2.786 1.043,2.786 0.383,0 0.557,0.499 0.557,1.6 0,1.333 0.133,1.6 0.8,1.6 0.667,0 0.8,0.267 0.8,1.6 0,1.333 0.133,1.6 0.8,1.6 0.667,0 0.8,0.267 0.8,1.6 0,1.333 0.133,1.6 0.8,1.6 0.667,0 0.8,0.267 0.8,1.6 0,1.333 0.133,1.6 0.8,1.6 0.649,0 0.8,0.267 0.8,1.413 0,0.875 0.224,1.498 0.589,1.638 0.324,0.125 0.704,0.839 0.845,1.588 0.14,0.748 0.485,1.361 0.766,1.361 0.281,0 0.631,0.639 0.778,1.421 0.146,0.782 0.526,1.521 0.844,1.643 0.318,0.122 0.578,0.562 0.578,0.979 0,0.49 0.282,0.757 0.8,0.757 0.652,0 0.8,0.267 0.8,1.437 0,1.101 0.187,1.487 0.8,1.647 0.443,0.116 0.8,0.546 0.8,0.963 0,0.486 0.283,0.753 0.8,0.753 0.652,0 0.8,0.267 0.8,1.437 0,1.101 0.187,1.487 0.8,1.647 0.44,0.115 0.8,0.458 0.8,0.763 0,0.304 0.36,0.553 0.8,0.553 0.667,0 0.8,0.267 0.8,1.6 0,1.333 0.133,1.6 0.8,1.6 0.533,0 0.8,0.267 0.8,0.8 0,0.533 0.267,0.8 0.8,0.8 0.652,0 0.8,0.267 0.8,1.437 0,1.101 0.187,1.487 0.8,1.647 0.443,0.116 0.8,0.546 0.8,0.963 0,0.414 0.27,0.753 0.6,0.753 0.33,0 0.6,0.287 0.6,0.637 0,0.351 0.36,0.732 0.8,0.847 0.443,0.116 0.8,0.546 0.8,0.963 0,0.472 0.282,0.753 0.755,0.753 0.547,0 0.829,0.387 1.019,1.4 0.157,0.838 0.496,1.4 0.844,1.4 0.32,0 0.582,0.36 0.582,0.8 0,0.533 0.267,0.8 0.8,0.8 0.533,0 0.8,0.267 0.8,0.8 0,0.533 0.267,0.8 0.8,0.8 0.533,0 0.8,0.267 0.8,0.8 0,0.533 0.267,0.8 0.8,0.8 0.533,0 0.8,0.267 0.8,0.8 0,0.533 0.267,0.8 0.8,0.8 0.533,0 0.8,0.267 0.8,0.8 0,0.533 0.267,0.8 0.8,0.8 0.533,0 0.8,0.267 0.8,0.8 0,0.533 0.267,0.8 0.8,0.8 0.533,0 0.8,0.267 0.8,0.8 0,0.44 0.258,0.8 0.573,0.8 0.315,0 0.687,0.36 0.827,0.8 0.14,0.44 0.512,0.8 0.827,0.8 0.315,0 0.573,0.287 0.573,0.637 0,0.351 0.36,0.732 0.8,0.847 0.44,0.115 0.8,0.475 0.8,0.8 0,0.325 0.36,0.685 0.8,0.8 0.44,0.115 0.8,0.446 0.8,0.736 0,0.289 0.36,0.64 0.8,0.78 0.44,0.14 0.8,0.512 0.8,0.827 0,0.315 0.339,0.573 0.753,0.573 0.417,0 0.847,0.357 0.963,0.8 0.16,0.613 0.546,0.8 1.647,0.8 1.17,0 1.437,0.148 1.437,0.8 0,0.533 0.267,0.8 0.8,0.8 0.533,0 0.8,0.267 0.8,0.8 0,0.533 0.267,0.8 0.8,0.8 0.533,0 0.8,0.267 0.8,0.8 0,0.533 0.267,0.8 0.8,0.8 0.44,0 0.8,0.251 0.8,0.557 0,0.612 0.841,1.043 2.033,1.043 0.435,0 0.767,0.276 0.767,0.637 0,0.351 0.343,0.728 0.763,0.837 0.42,0.11 0.853,0.543 0.963,0.963 0.149,0.572 0.559,0.763 1.637,0.763 1.048,0 1.437,0.172 1.437,0.637 0,0.351 0.343,0.728 0.763,0.837 0.42,0.11 0.853,0.543 0.963,0.963 0.149,0.572 0.559,0.763 1.636998,0.763 1.011,0 1.437,0.178 1.437,0.6 0,0.333 0.356,0.6 0.8,0.6 0.533,0 0.8,0.267 0.8,0.8 0,0.667 0.267,0.8 1.6,0.8 1.333,0 1.6,0.133 1.6,0.8 0,0.517 0.267,0.8 0.753,0.8 0.417,0 0.847,0.357 0.963,0.8 0.15,0.574 0.546,0.8 1.4,0.8 0.854,0 1.25,0.226 1.4,0.8 0.159,0.606 0.546,0.8 1.6,0.8 1.054,0 1.441,0.194 1.6,0.8 0.16,0.613 0.546,0.8 1.647,0.8 1.17,0 1.437,0.148 1.437,0.8 0,0.667 0.267,0.8 1.6,0.8 1.333,0 1.6,0.133 1.6,0.8 0,0.663 0.267,0.8 1.553,0.8 1.217,0 1.599,0.173 1.763,0.8 0.16,0.613 0.546,0.8 1.647,0.8 0.957,0 1.437,0.185 1.437,0.553 0,0.625 1.197,1.033 3.053,1.042 0.915,0.004 1.31,0.221 1.463,0.805 0.16,0.613 0.546,0.8 1.647,0.8 1.011,0 1.437,0.178 1.437,0.6 0,0.467 0.533,0.6 2.4,0.6 2.133,0 2.4,0.089 2.4,0.8 0,0.701 0.267,0.8 2.153,0.8 1.817,0 2.186,0.125 2.363,0.8 0.176,0.674 0.546,0.8 2.35,0.8 1.708,0 2.243,0.162 2.641,0.8 0.422,0.676 0.933,0.8 3.296,0.8 2.53,0 2.797,0.076 2.797,0.8 0,0.743 0.267,0.8 3.753,0.8 3.417,0 3.772,0.072 3.963,0.8 0.194,0.742 0.546,0.8 4.847,0.8 4.37,0 4.637,0.046 4.637,0.8 0,1.261 50.754,1.261 51.084,0 0.194,-0.741 0.546,-0.8 4.8,-0.8 4.254,0 4.606,-0.059 4.8,-0.8 0.186,-0.71 0.546,-0.8 3.2,-0.8 2.654,0 3.014,-0.09 3.2,-0.8 0.185,-0.709 0.546,-0.8 3.163,-0.8 2.686,0 2.953,-0.072 2.953,-0.8 0,-0.711 0.267,-0.8 2.4,-0.8 2.133,0 2.4,-0.089 2.4,-0.8 0,-0.711 0.267,-0.8 2.4,-0.8 2.133,0 2.4,-0.089 2.4,-0.8 0,-0.703 0.267,-0.8 2.2,-0.8 1.689,0 2.2,-0.139 2.2,-0.6 0,-0.426 0.436,-0.602 1.5,-0.605 2.089,-0.008 3.3,-0.39 3.3,-1.042 0,-0.368 0.48,-0.553 1.437,-0.553 1.101,0 1.487,-0.187 1.647,-0.8 0.159,-0.606 0.546,-0.8 1.6,-0.8 1.054,0 1.441,-0.194 1.6,-0.8 0.157,-0.601 0.546,-0.8 1.563,-0.8 1.086,0 1.353,-0.158 1.353,-0.8 0,-0.667 0.267,-0.8 1.6,-0.8 1.333,0 1.6,-0.133 1.6,-0.8 0,-0.667 0.267,-0.8 1.6,-0.8 1.333,0 1.6,-0.133 1.6,-0.8 0,-0.667 0.267,-0.8 1.6,-0.8 1.333,0 1.6,-0.133 1.6,-0.8 0,-0.652 0.267,-0.8 1.437,-0.8 1.101,0 1.487,-0.187 1.647,-0.8 0.157,-0.601 0.546,-0.8 1.563,-0.8 0.971,0 1.353,-0.18 1.353,-0.637 0,-0.351 0.36,-0.732 0.8,-0.847 0.443,-0.116 0.8,-0.546 0.8,-0.963 0,-0.612 0.3,-0.753 1.6,-0.753 1.156,0 1.6,-0.167 1.6,-0.6 0,-0.333 0.356,-0.6 0.8,-0.6 0.533,0 0.8,-0.267 0.8,-0.8 0,-0.652 0.267,-0.8 1.437,-0.8 1.101,0 1.487,-0.187 1.647,-0.8 0.116,-0.443 0.546,-0.8 0.963,-0.8 0.486,0 0.753,-0.283 0.753,-0.8 0,-0.645 0.267,-0.8 1.373,-0.8 0.996,0 1.439,-0.208 1.613,-0.757 0.132,-0.416 0.595,-0.849 1.027,-0.962 0.433,-0.114 0.787,-0.493 0.787,-0.844 0,-0.35 0.27,-0.637 0.6,-0.637 0.333,0 0.6,-0.356 0.6,-0.8 0,-0.667 0.267,-0.8 1.6,-0.8 1.333,0 1.6,-0.133 1.6,-0.8 0,-0.533 0.267,-0.8 0.8,-0.8 0.533,0 0.8,-0.267 0.8,-0.8 0,-0.533 0.267,-0.8 0.8,-0.8 0.533,0 0.8,-0.267 0.8,-0.8 0,-0.533 0.267,-0.8 0.8,-0.8 0.444,0 0.8,-0.267 0.8,-0.6 0,-0.333 0.356,-0.6 0.8,-0.6 0.518,0 0.8,-0.267 0.8,-0.755 0,-0.547 0.387,-0.829 1.4,-1.019 0.884,-0.165 1.4,-0.49 1.4,-0.882 0,-0.34 0.36,-0.713 0.8,-0.828 0.44,-0.115 0.8,-0.475 0.8,-0.8 0,-0.325 0.36,-0.685 0.8,-0.8 0.44,-0.115 0.8,-0.446 0.8,-0.736 0,-0.289 0.36,-0.64 0.8,-0.78 0.44,-0.14 0.8,-0.5 0.8,-0.8 0,-0.3 0.36,-0.66 0.8,-0.8 0.44,-0.14 0.8,-0.491 0.8,-0.78 0,-0.29 0.36,-0.621 0.8,-0.736 0.44,-0.115 0.8,-0.475 0.8,-0.8 0,-0.325 0.36,-0.685 0.8,-0.8 0.613,-0.16 0.8,-0.546 0.8,-1.647 0,-1.17 0.148,-1.437 0.8,-1.437 0.533,0 0.8,-0.267 0.8,-0.8 0,-0.533 0.267,-0.8 0.8,-0.8 0.44,0 0.8,-0.249 0.8,-0.553 0,-0.305 0.36,-0.648 0.8,-0.763 0.44,-0.115 0.8,-0.475 0.8,-0.8 0,-0.325 0.36,-0.685 0.8,-0.8 0.44,-0.115 0.8,-0.496 0.8,-0.847 0,-0.35 0.241,-0.637 0.536,-0.637 0.294,0 0.741,-0.45 0.991,-1 0.251,-0.55 0.632,-1 0.846,-1 0.215,0 0.509,-0.63 0.653,-1.4 0.19,-1.013 0.472,-1.4 1.019,-1.4 0.488,0 0.755,-0.282 0.755,-0.8 0,-0.444 0.267,-0.8 0.6,-0.8 0.33,0 0.6,-0.339 0.6,-0.753 0,-0.417 0.357,-0.847 0.8,-0.963 0.613,-0.16 0.8,-0.546 0.8,-1.647 0,-1.17 0.148,-1.437 0.8,-1.437 0.533,0 0.8,-0.267 0.8,-0.8 0,-0.533 0.267,-0.8 0.8,-0.8 0.648,0 0.8,-0.267 0.8,-1.4 0,-1.133 0.152,-1.4 0.8,-1.4 0.524,0 0.8,-0.267 0.8,-0.773 0,-0.425 0.36,-0.887 0.8,-1.027 0.595,-0.189 0.8,-0.605 0.8,-1.627 0,-1.106 0.155,-1.373 0.8,-1.373 0.667,0 0.8,-0.267 0.8,-1.6 0,-1.333 0.133,-1.6 0.8,-1.6 0.533,0 0.8,-0.267 0.8,-0.8 0,-0.44 0.251,-0.8 0.557,-0.8 0.638,0 1.043,-0.849 1.043,-2.186 0,-0.584 0.292,-0.997 0.8,-1.13 0.583,-0.152 0.8,-0.546 0.8,-1.447 0,-0.833 0.196,-1.237 0.6,-1.237 0.433,0 0.6,-0.444 0.6,-1.6 0,-1.333 0.133,-1.6 0.8,-1.6 0.667,0 0.8,-0.267 0.8,-1.6 0,-1.333 0.133,-1.6 0.8,-1.6 0.667,0 0.8,-0.267 0.8,-1.6 0,-1.333 0.133,-1.6 0.8,-1.6 0.667,0 0.8,-0.267 0.8,-1.6 0,-1.333 0.133,-1.6 0.8,-1.6 0.701,0 0.8,-0.267 0.8,-2.153 0,-1.817 0.125,-2.186 0.8,-2.363 0.606,-0.159 0.8,-0.546 0.8,-1.6 0,-1.054 0.194,-1.441 0.8,-1.6 0.68,-0.178 0.8,-0.546 0.8,-2.447 0,-1.97 0.095,-2.237 0.8,-2.237 0.709,0 0.8,-0.267 0.8,-2.353 0,-2.017 0.114,-2.384 0.8,-2.563 0.654,-0.171 0.8,-0.546 0.8,-2.047 0,-1.304 0.232,-2.069 0.8,-2.637 0.633,-0.633 0.8,-1.333 0.8,-3.353 0,-2.217 0.105,-2.581 0.8,-2.763 0.711,-0.186 0.8,-0.546 0.8,-3.247 0,-2.433 0.119,-3.037 0.6,-3.037 0.491,0 0.6,-0.684 0.6,-3.753 0,-3.417 0.072,-3.772 0.8,-3.963 0.756,-0.198 0.8,-0.546 0.8,-6.284 0,-5.738 0.044,-6.086 0.8,-6.284 1.26,-0.33 1.26,-38.916 0,-38.916 -0.766,0 -0.8,-0.267 -0.8,-6.2 0,-5.933 -0.034,-6.2 -0.8,-6.2 -0.754,0 -0.8,-0.267 -0.8,-4.6 0,-3.822 -0.101,-4.6 -0.6,-4.6 -0.451,0 -0.6,-0.483 -0.6,-1.95 0,-2.735 -0.405,-4.45 -1.05,-4.45 -0.401,0 -0.55,-0.606 -0.55,-2.237 0,-1.901 -0.12,-2.269 -0.8,-2.447 -0.668,-0.175 -0.801,-0.548 -0.805,-2.263 -0.007,-2.616 -0.342,-3.853 -1.042,-3.853 -0.371,0 -0.555,-0.492 -0.558,-1.5 -0.008,-2.089 -0.39,-3.3 -1.042,-3.3 -0.379,0 -0.553,-0.504 -0.553,-1.6 0,-1.333 -0.133,-1.6 -0.8,-1.6 -0.705,0 -0.8,-0.267 -0.8,-2.237 0,-1.901 -0.12,-2.269 -0.8,-2.447 -0.606,-0.159 -0.8,-0.546 -0.8,-1.6 0,-1.054 -0.194,-1.441 -0.8,-1.6 -0.597,-0.156 -0.8,-0.546 -0.8,-1.536 0,-0.975 -0.212,-1.393 -0.8,-1.58 -0.66,-0.21 -0.8,-0.605 -0.8,-2.264 0,-1.674 -0.134,-2.046 -0.8,-2.22 -0.606,-0.159 -0.8,-0.546 -0.8,-1.6 0,-1.054 -0.194,-1.441 -0.8,-1.6 -0.601,-0.157 -0.8,-0.546 -0.8,-1.563 0,-0.744 -0.184,-1.353 -0.41,-1.353 -0.225,0 -0.581,-0.45 -0.79,-1 -0.209,-0.55 -0.655,-1 -0.99,-1 -0.433,0 -0.61,-0.416 -0.61,-1.437 0,-1.101 -0.187,-1.487 -0.8,-1.647 -0.574,-0.15 -0.8,-0.546 -0.8,-1.4 0,-0.854 -0.226,-1.25 -0.8,-1.4 -0.508,-0.133 -0.8,-0.546 -0.8,-1.13 0,-1.337 -0.405,-2.186 -1.043,-2.186 -0.306,0 -0.557,-0.36 -0.557,-0.8 0,-0.533 -0.267,-0.8 -0.8,-0.8 -0.652,0 -0.8,-0.267 -0.8,-1.437 0,-1.101 -0.187,-1.487 -0.8,-1.647 -0.443,-0.116 -0.8,-0.546 -0.8,-0.963 0,-0.486 -0.283,-0.753 -0.8,-0.753 -0.645,0 -0.8,-0.267 -0.8,-1.373 0,-1.022 -0.205,-1.438 -0.8,-1.627 -0.44,-0.14 -0.8,-0.5 -0.8,-0.8 0,-0.3 -0.36,-0.66 -0.8,-0.8 -0.44,-0.14 -0.8,-0.512 -0.8,-0.827 0,-0.315 -0.27,-0.573 -0.6,-0.573 -0.368,0 -0.6,-0.374 -0.6,-0.967 0,-1.35 -0.394,-2.233 -0.996,-2.233 -0.281,0 -0.605,-0.36 -0.72,-0.8 -0.115,-0.44 -0.496,-0.8 -0.847,-0.8 -0.37,0 -0.637,-0.335 -0.637,-0.8 0,-0.533 -0.267,-0.8 -0.8,-0.8 -0.587,0 -0.8,-0.267 -0.8,-1 0,-0.55 -0.329,-1.329 -0.731,-1.731 -0.401,-0.401 -0.846,-1.031 -0.987,-1.4 -0.141,-0.368 -0.512,-0.669 -0.823,-0.669 -0.311,0 -0.66,-0.36 -0.775,-0.8 -0.115,-0.44 -0.475,-0.8 -0.8,-0.8 -0.325,0 -0.685,-0.36 -0.8,-0.8 -0.115,-0.44 -0.496,-0.8 -0.847,-0.8 -0.35,0 -0.637,-0.258 -0.637,-0.573 0,-0.315 -0.36,-0.687 -0.8,-0.827 -0.44,-0.14 -0.8,-0.512 -0.8,-0.827 0,-0.315 -0.36,-0.573 -0.8,-0.573 -0.533,0 -0.8,-0.267 -0.8,-0.8 0,-0.533 -0.267,-0.8 -0.8,-0.8 -0.533,0 -0.8,-0.267 -0.8,-0.8 0,-0.444 -0.267,-0.8 -0.6,-0.8 -0.33,0 -0.6,-0.287 -0.6,-0.637 0,-0.351 -0.36,-0.732 -0.8,-0.847 -0.44,-0.115 -0.8,-0.475 -0.8,-0.8 0,-0.325 -0.36,-0.685 -0.8,-0.8 -0.443,-0.116 -0.8,-0.546 -0.8,-0.963 0,-0.486 -0.283,-0.753 -0.8,-0.753 -0.465,0 -0.8,-0.267 -0.8,-0.637 0,-0.351 -0.36,-0.732 -0.8,-0.847 -0.44,-0.115 -0.8,-0.475 -0.8,-0.8 0,-0.325 -0.36,-0.685 -0.8,-0.8 -0.44,-0.115 -0.8,-0.446 -0.8,-0.736 0,-0.289 -0.343,-0.635 -0.763,-0.768 -0.42,-0.133 -0.86,-0.496 -0.979,-0.805 -0.119,-0.31 -0.855,-0.683 -1.637,-0.829 -0.818,-0.154 -1.421,-0.503 -1.421,-0.823 0,-0.305 -0.36,-0.555 -0.8,-0.555 -0.533,0 -0.8,-0.267 -0.8,-0.8 0,-0.533 -0.267,-0.8 -0.8,-0.8 -0.533,0 -0.8,-0.267 -0.8,-0.8 0,-0.648 -0.267,-0.8 -1.4,-0.8 -1.133,0 -1.4,-0.152 -1.4,-0.8 0,-0.533 -0.267,-0.8 -0.8,-0.8 -0.533,0 -0.8,-0.267 -0.8,-0.8 0,-0.517 -0.267,-0.8 -0.753,-0.8 -0.417,0 -0.847,-0.357 -0.963,-0.8 -0.16,-0.613 -0.546,-0.8 -1.647,-0.8 -1.17,0 -1.437,-0.148 -1.437,-0.8 0,-0.517 -0.267,-0.8 -0.753,-0.8 -0.417,0 -0.847,-0.357 -0.963,-0.8 -0.16,-0.613 -0.546,-0.8 -1.647,-0.8 -1.17,0 -1.437,-0.148 -1.437,-0.8 0,-0.533 -0.267,-0.8 -0.8,-0.8 -0.44,0 -0.8,-0.25 -0.8,-0.555 0,-0.316 -0.589,-0.666 -1.361,-0.811 -0.749,-0.141 -1.46,-0.511 -1.579,-0.823 -0.12,-0.312 -0.857,-0.687 -1.639,-0.833 -0.818,-0.154 -1.421,-0.503 -1.421,-0.823 0,-0.381 -0.501,-0.555 -1.6,-0.555 -1.333,0 -1.6,-0.133 -1.6,-0.8 0,-0.667 -0.267,-0.8 -1.6,-0.8 -1.333,0 -1.6,-0.133 -1.6,-0.8 0,-0.667 -0.267,-0.8 -1.6,-0.8 -1.333,0 -1.6,-0.133 -1.6,-0.8 0,-0.642 -0.267,-0.8 -1.353,-0.8 -1.017,0 -1.406,-0.199 -1.563,-0.8 -0.159,-0.606 -0.546,-0.8 -1.6,-0.8 -1.054,0 -1.441,-0.194 -1.6,-0.8 -0.159,-0.606 -0.546,-0.8 -1.6,-0.8 -1.054,0 -1.441,-0.194 -1.6,-0.8 -0.178,-0.68 -0.546,-0.8 -2.447,-0.8 -1.97,0 -2.237,-0.095 -2.237,-0.8 0,-0.667 -0.267,-0.8 -1.6,-0.8 -1.101,0 -1.6,-0.174 -1.6,-0.557 0,-0.698 -0.871,-1.043 -2.633,-1.043 -0.834,0 -1.679,-0.312 -2.167,-0.8 -0.563,-0.563 -1.333,-0.8 -2.6,-0.8 -1.254,0 -1.8,-0.166 -1.8,-0.546 0,-0.556 -2.387,-1.054 -5.056,-1.054 -0.928,0 -1.344,-0.186 -1.344,-0.6 0,-0.479 -0.595,-0.6 -2.953,-0.6 -2.617,0 -2.978,-0.091 -3.163,-0.8 -0.191,-0.73 -0.546,-0.8 -4.047,-0.8 -3.57,0 -3.837,-0.056 -3.837,-0.8 0,-0.766 -0.267,-0.8 -6.2,-0.8 -5.933,0 -6.2,-0.034 -6.2,-0.8 0,-0.789 -0.267,-0.8 -18.637,-0.8 -18.301,0 -18.642,0.014 -18.847,0.8 m 38.232,17.56 c 0.522,0.286 2.79,0.68 5.04,0.875 2.25,0.196 4.743,0.628 5.539,0.96 0.796,0.333 2.06,0.605 2.808,0.605 0.748,0 2.488,0.36 3.865,0.8 1.377,0.44 3.071,0.8 3.763,0.8 0.692,0 1.614,0.247 2.048,0.55 0.434,0.302 1.599,0.682 2.589,0.844 0.99,0.162 2.555,0.635 3.478,1.05 0.923,0.416 1.967,0.756 2.32,0.756 0.353,0 1.134,0.255 1.736,0.566 0.601,0.311 1.756,0.69 2.566,0.842 0.809,0.151 1.68,0.527 1.935,0.834 0.255,0.307 0.756,0.56 1.114,0.562 0.358,0.002 1.551,0.446 2.651,0.987 1.1,0.541 2.293,0.99 2.651,0.996 0.358,0.007 0.875,0.283 1.149,0.613 0.274,0.33 0.766,0.6 1.095,0.6 0.328,0 1.251,0.337 2.051,0.749 0.799,0.412 2.534,1.259 3.854,1.883 1.32,0.623 2.49,1.256 2.6,1.406 0.11,0.15 0.83,0.561 1.6,0.913 2.004,0.918 5.69,3.032 6.431,3.689 0.348,0.308 0.782,0.56 0.966,0.56 0.502,0 8.354,5.302 8.723,5.89 0.176,0.281 0.555,0.51 0.841,0.51 0.287,0 0.984,0.405 1.548,0.9 1.568,1.377 2.897,2.439 3.88,3.1 2.068,1.391 4.411,3.332 4.411,3.654 0,0.19 0.196,0.346 0.435,0.346 0.239,0 1.417,0.99 2.617,2.2 1.2,1.21 2.294,2.2 2.43,2.2 0.351,0 9.897,9.704 12.523,12.73 1.207,1.392 2.867,3.282 3.689,4.2 0.822,0.919 1.497,1.796 1.5,1.949 0.003,0.154 0.453,0.784 1,1.4 1.748,1.972 1.998,2.279 2.406,2.953 0.973,1.611 2.02,2.993 2.49,3.288 0.281,0.176 0.51,0.553 0.51,0.838 0,0.285 0.36,0.844 0.8,1.242 0.44,0.398 0.8,0.862 0.8,1.031 0,0.261 2.97,4.962 3.898,6.169 0.169,0.22 0.54,0.85 0.824,1.4 0.284,0.55 0.952,1.72 1.485,2.6 0.532,0.88 1.622,2.906 2.422,4.502 0.801,1.597 1.602,2.994 1.782,3.105 0.18,0.111 0.446,0.74 0.59,1.398 0.144,0.657 0.416,1.195 0.604,1.195 0.188,0 0.462,0.405 0.609,0.9 0.148,0.495 0.63,1.71 1.071,2.7 0.441,0.99 1.118,2.52 1.504,3.4 0.387,0.88 0.991,2.23 1.343,3 0.352,0.77 0.764,1.94 0.916,2.6 0.151,0.66 0.607,1.827 1.013,2.594 0.407,0.767 0.739,1.712 0.739,2.102 0,0.389 0.36,1.379 0.8,2.2 0.44,0.82 0.806,2.035 0.813,2.698 0.007,0.663 0.264,1.538 0.571,1.943 0.307,0.405 0.674,1.485 0.816,2.4 0.142,0.915 0.497,2.203 0.788,2.863 0.291,0.66 0.651,2.01 0.8,3 0.15,0.99 0.527,2.52 0.84,3.4 0.312,0.88 0.74,2.86 0.952,4.4 0.211,1.54 0.566,3.79 0.787,5 0.222,1.21 0.593,3.64 0.825,5.4 0.233,1.76 0.608,4.55 0.833,6.2 0.597,4.36 0.305,35.043 -0.347,36.553 -0.274,0.634 -0.653,3.082 -0.843,5.442 -0.19,2.359 -0.521,4.63 -0.736,5.047 -0.215,0.417 -0.513,1.997 -0.661,3.51 -0.149,1.514 -0.522,3.352 -0.828,4.085 -0.306,0.733 -0.682,2.194 -0.835,3.248 -0.153,1.053 -0.504,2.365 -0.78,2.915 -0.275,0.55 -0.633,1.81 -0.795,2.8 -0.162,0.99 -0.522,2.25 -0.8,2.8 -0.278,0.55 -0.63,1.748 -0.782,2.663 -0.152,0.915 -0.527,1.995 -0.834,2.4 -0.307,0.405 -0.564,1.1 -0.571,1.543 -0.007,0.443 -0.345,1.433 -0.752,2.2 -0.406,0.767 -0.862,1.934 -1.013,2.594 -0.152,0.66 -0.564,1.83 -0.916,2.6 -0.352,0.77 -0.998,2.21 -1.435,3.2 -0.437,0.99 -1.132,2.466 -1.546,3.279 -0.413,0.814 -0.751,1.731 -0.751,2.039 0,0.308 -0.36,0.975 -0.8,1.482 -0.44,0.507 -0.8,1.244 -0.8,1.638 0,0.393 -0.178,0.825 -0.395,0.959 -0.217,0.134 -1.072,1.598 -1.9,3.254 -2.653,5.305 -2.905,5.749 -3.265,5.749 -0.194,0 -0.465,0.447 -0.603,0.993 -0.137,0.547 -1.236,2.443 -2.443,4.216 -1.207,1.772 -2.194,3.297 -2.194,3.389 0,0.402 -2.113,3.232 -2.63,3.522 -0.313,0.176 -0.57,0.51 -0.57,0.743 0,0.232 -0.714,1.348 -1.587,2.48 -0.873,1.131 -1.908,2.483 -2.3,3.005 -0.392,0.521 -0.983,1.245 -1.313,1.61 -0.33,0.364 -1.85,2.188 -3.379,4.052 -3.138,3.829 -14.786,15.598 -17.221,17.401 -0.88,0.651 -1.69,1.303 -1.8,1.447 -0.274,0.36 -6.888,5.598 -8.008,6.342 -0.497,0.33 -1.373,0.977 -1.948,1.438 -1.617,1.298 -5.207,3.762 -5.482,3.762 -0.136,0 -0.781,0.45 -1.435,1 -0.654,0.55 -1.445,1 -1.758,1 -0.313,0 -0.569,0.157 -0.569,0.348 0,0.192 -1.185,0.956 -2.633,1.699 -1.448,0.743 -2.82,1.576 -3.049,1.852 -0.229,0.275 -0.743,0.501 -1.143,0.501 -0.4,0 -0.838,0.178 -0.972,0.395 -0.134,0.217 -1.54,1.034 -3.123,1.815 -1.584,0.782 -3.15,1.583 -3.48,1.781 -1.335,0.801 -5.191,2.409 -5.775,2.409 -0.344,0 -0.625,0.173 -0.625,0.384 0,0.211 -0.765,0.602 -1.7,0.869 -0.935,0.267 -1.97,0.709 -2.3,0.982 -0.33,0.274 -1.32,0.625 -2.2,0.782 -0.88,0.156 -1.87,0.509 -2.2,0.783 -0.33,0.274 -1.301,0.625 -2.158,0.778 -0.858,0.154 -1.938,0.517 -2.4,0.806 -0.463,0.29 -1.509,0.643 -2.325,0.786 -0.816,0.143 -1.986,0.522 -2.6,0.842 -0.614,0.321 -1.605,0.584 -2.202,0.586 -0.597,10e-4 -1.999,0.362 -3.115,0.802 -1.116,0.44 -2.569,0.8 -3.228,0.8 -0.659,0 -1.86,0.277 -2.67,0.615 -0.809,0.338 -2.558,0.717 -3.887,0.842 -1.328,0.125 -3.424,0.476 -4.656,0.781 -1.233,0.304 -4.653,0.738 -7.6,0.965 -2.948,0.226 -6.709,0.58 -8.359,0.786 -3.75,0.47 -15.396,0.462 -18.6,-0.011 -1.32,-0.196 -4.884,-0.536 -7.919,-0.757 -3.036,-0.221 -6.443,-0.676 -7.573,-1.011 -1.129,-0.336 -2.835,-0.61 -3.791,-0.61 -0.955,0 -2.761,-0.36 -4.013,-0.8 -1.252,-0.44 -2.823,-0.808 -3.49,-0.818 -0.668,-0.009 -1.934,-0.294 -2.814,-0.633 -0.88,-0.339 -2.522,-0.78 -3.65,-0.98 -1.127,-0.201 -2.567,-0.634 -3.2,-0.964 -0.632,-0.33 -1.556,-0.601 -2.051,-0.603 -0.496,-10e-4 -1.574,-0.362 -2.395,-0.802 -0.82,-0.44 -1.865,-0.8 -2.322,-0.8 -0.456,0 -1.178,-0.264 -1.606,-0.587 -0.427,-0.323 -1.139,-0.593 -1.582,-0.6 -0.443,-0.007 -1.433,-0.349 -2.2,-0.76 -0.767,-0.41 -1.967,-0.872 -2.666,-1.025 -0.7,-0.154 -1.487,-0.538 -1.749,-0.854 -0.262,-0.316 -0.765,-0.574 -1.118,-0.574 -1.323,0 -18.862,-9.189 -20.39,-10.683 -0.29,-0.284 -0.791,-0.517 -1.112,-0.517 -0.321,0 -0.688,-0.27 -0.814,-0.6 -0.127,-0.33 -0.419,-0.6 -0.65,-0.6 -0.231,0 -1.009,-0.45 -1.731,-1 -0.721,-0.55 -1.503,-1 -1.737,-1 -0.235,0 -0.427,-0.15 -0.427,-0.333 0,-0.183 -0.945,-0.934 -2.1,-1.669 -1.155,-0.735 -2.391,-1.62 -2.746,-1.967 -0.356,-0.347 -1.052,-0.901 -1.547,-1.231 -1.222998,-0.815 -5.233998,-4.014 -6.268998,-5 -0.462,-0.44 -2.232,-2.06 -3.934,-3.6 -5.167,-4.675 -13.404,-13.009 -13.404,-13.561 0,-0.146 -0.585,-0.836 -1.3,-1.532 -0.715,-0.697 -2.152,-2.356 -3.193,-3.687 -1.041,-1.331 -2.166,-2.705 -2.5,-3.054 -0.334,-0.348 -0.607,-0.843 -0.607,-1.1 0,-0.256 -0.162,-0.466 -0.36,-0.466 -0.319,0 -1.236,-1.265 -2.704,-3.729 -0.255,-0.429 -0.615,-0.89 -0.801,-1.025 -0.593,-0.433 -2.535,-3.471 -2.535,-3.968 0,-0.263 -0.189,-0.478 -0.421,-0.478 -0.231,0 -0.609,-0.54 -0.839,-1.2 -0.23,-0.66 -0.578,-1.2 -0.774,-1.2 -0.195,0 -0.635,-0.585 -0.976,-1.3 -0.342,-0.715 -0.981,-1.93 -1.421,-2.7 -2.627,-4.6 -4.137,-7.426 -5.772,-10.8 -1.013,-2.09 -2.281,-4.672 -2.819,-5.737 -0.538,-1.065 -0.978,-2.258 -0.978,-2.651 0,-0.393 -0.256,-0.926 -0.569,-1.186 -0.313,-0.26 -0.687,-1.171 -0.831,-2.026 -0.144,-0.855 -0.51,-1.759 -0.812,-2.01 -0.302,-0.25 -0.667,-1.245 -0.812,-2.21 -0.145,-0.965 -0.499,-1.95 -0.788,-2.19 -0.289,-0.24 -0.651,-1.191 -0.804,-2.113 -0.153,-0.922 -0.503,-2.127 -0.778,-2.677 -0.274,-0.55 -0.628,-1.711 -0.786,-2.58 -0.157,-0.868 -0.541,-1.943 -0.853,-2.389 -0.312,-0.445 -0.567,-1.303 -0.567,-1.906 0,-0.603 -0.296,-1.958 -0.658,-3.011 -0.362,-1.053 -0.886,-3.084 -1.163,-4.514 -0.278,-1.43 -0.698,-3.32 -0.933,-4.2 -0.235,-0.88 -0.431,-2.336 -0.436,-3.236 -0.006,-0.9 -0.282,-2.52 -0.614,-3.6 -0.332,-1.08 -0.784,-4.726 -1.005,-8.101 -0.221,-3.375 -0.58,-6.468 -0.797,-6.874 -0.52,-0.972 -0.517,-20.567 0.004,-22.383 0.219,-0.764 0.576,-4.026 0.792,-7.249 0.216,-3.224 0.591,-6.378 0.833,-7.009 0.242,-0.632 0.593,-2.616 0.78,-4.411 0.187,-1.795 0.623,-4.096 0.969,-5.114 0.345,-1.018 0.628,-2.484 0.628,-3.257 0,-0.773 0.255,-1.898 0.566,-2.5 0.311,-0.601 0.683,-1.807 0.827,-2.68 0.145,-0.872 0.588,-2.576 0.987,-3.786 0.398,-1.21 1.117,-3.55 1.597,-5.2 0.48,-1.65 1.125,-3.54 1.434,-4.2 0.309,-0.66 0.682,-1.74 0.829,-2.4 0.147,-0.66 0.489,-1.47 0.76,-1.8 0.271,-0.33 0.613,-1.14 0.76,-1.8 0.147,-0.66 0.513,-1.74 0.813,-2.4 0.3,-0.66 0.993,-2.19 1.539,-3.4 1.922,-4.258 4.447,-9.402 4.712,-9.6 0.148,-0.11 0.404,-0.65 0.569,-1.2 0.166,-0.55 0.538,-1.27 0.826,-1.601 0.289,-0.33 0.727,-1.05 0.974,-1.6 0.246,-0.549 0.888,-1.719 1.425,-2.599 0.537,-0.88 1.25,-2.185 1.585,-2.9 0.334,-0.715 0.785,-1.3 1.002,-1.3 0.217,0 0.395,-0.256 0.395,-0.569 0,-0.313 0.419,-1.078 0.932,-1.7 0.512,-0.622 1.047,-1.446 1.187,-1.831 0.141,-0.385 0.442,-0.7 0.668,-0.7 0.227,0 0.413,-0.246 0.413,-0.547 0,-0.301 1.035,-1.914 2.3,-3.584 1.265,-1.671 2.873,-3.81 3.572,-4.753 0.7,-0.944 1.78,-2.29 2.4,-2.993 0.621,-0.702 1.578,-1.842 2.128,-2.534 2.534,-3.188 4.221,-4.999 10.067,-10.811 3.446,-3.426 7.721,-7.376 9.5,-8.776 1.778,-1.401 3.233,-2.695 3.233,-2.875 0,-0.18 0.18,-0.327 0.4,-0.327 0.22,0 0.715,-0.278 1.1,-0.617 1.550998,-1.368 5.262998,-4.183 5.514998,-4.183 0.148,0 0.765,-0.405 1.372,-0.9 0.606,-0.495 1.504,-1.17 1.995,-1.5 0.491,-0.33 1.451,-1.005 2.133,-1.5 0.682,-0.495 1.387,-0.9 1.567,-0.9 0.179,0 1.234,-0.638 2.344,-1.418 1.11,-0.78 2.413,-1.594 2.896,-1.81 0.483,-0.215 1.598,-0.824 2.478,-1.354 0.88,-0.53 2.14,-1.242 2.8,-1.582 0.66,-0.341 1.47,-0.786 1.8,-0.99 1.417,-0.874 9.929,-4.828 11.294,-5.246 0.822,-0.252 1.598,-0.625 1.724,-0.829 0.126,-0.204 0.534,-0.377 0.906,-0.384 0.372,-0.006 1.576,-0.455 2.676,-0.996 1.1,-0.541 2.321,-0.985 2.714,-0.987 0.393,-0.002 1.113,-0.254 1.6,-0.559 0.487,-0.305 1.587,-0.679 2.444,-0.829 0.858,-0.151 1.938,-0.51 2.4,-0.798 0.463,-0.288 1.643,-0.643 2.622,-0.788 0.979,-0.146 1.99,-0.439 2.245,-0.651 0.256,-0.212 1.525,-0.57 2.82,-0.795 1.295,-0.225 2.785,-0.591 3.311,-0.813 0.526,-0.223 2.306,-0.576 3.956,-0.785 1.649,-0.209 3.214,-0.559 3.477,-0.777 0.263,-0.218 2.388,-0.562 4.722,-0.765 2.334,-0.203 4.479,-0.515 4.766,-0.695 1.627,-1.015 36.851,-1.188 38.671,-0.189 m 76.852,63.916 c -0.55,0.092 -1.821,0.431 -2.824,0.753 -7.422,2.38 -27.078,3.842 -49.54,3.685 l -16.225,-0.114 -0.467,2 c -0.306,1.311 -0.488,7.233 -0.528,17.2 -0.081,20.039 -1.246,32.79 -3.173,34.717 -0.244,0.244 -0.443,0.688 -0.443,0.988 0,0.299 -0.427,1.478 -0.949,2.62 -0.522,1.141 -1.066,2.345 -1.208,2.675 -0.26,0.603 -1.042,1.935 -3.217,5.485 -6.057,9.882 -17.11,19.988 -18.786,17.176 -0.242,-0.407 -1.399,-1.757 -2.571,-3 -6.87,-7.288 -16.469,-20.695 -16.469,-23.004 0,-0.308 -0.251,-0.767 -0.558,-1.022 -0.307,-0.255 -0.674,-1.079 -0.815,-1.832 -0.141,-0.753 -0.507,-1.85 -0.812,-2.438 -0.305,-0.588 -0.679,-1.974 -0.831,-3.078 -0.152,-1.105 -0.525,-2.606 -0.83,-3.335 -0.305,-0.73 -0.558,-2.187 -0.562,-3.239 -0.005,-1.052 -0.305,-4.073 -0.668,-6.713 -0.466,-3.395 -0.727,-9.25 -0.891,-20 l -0.233,-15.2 -19.6,-0.254 c -16.894,-0.22 -22.584,-0.425 -36.2,-1.308 -3.464,-0.224 -10.407,-1.033 -12.571,-1.464 -3.113998,-0.62 -3.056998,-0.909 -1.463,7.426 0.895,4.686 1.414,17.515 1.617,40 l 0.217,24 21,0.233 c 17.622,0.196 21.418,0.34 23.6,0.892 1.43,0.362 3.006,0.662 3.501,0.667 0.496,0.004 1.574,0.368 2.395,0.808 0.82,0.44 1.827,0.8 2.236,0.8 0.41,0 1.222,0.246 1.806,0.547 0.584,0.301 2.232,1.12 3.662,1.82 1.43,0.7 3.32,1.705 4.2,2.234 0.88,0.528 1.87,1.092 2.2,1.253 4.203,2.046 17.652,14.167 18.251,16.449 0.311,1.184 -0.546,2.439 -2.671,3.909 -0.944,0.653 -2.383,1.818 -3.197,2.588 -0.815,0.77 -2.504,2.12 -3.753,3 -1.249,0.88 -2.577,1.876 -2.951,2.214 -0.373,0.337 -1.489,1.147 -2.479,1.799 -0.99,0.651 -1.89,1.285 -2,1.407 -0.176,0.195 -1.328,0.929 -4.194,2.669 -0.443,0.269 -1.346,0.767 -2.006,1.106 -0.66,0.339 -1.47,0.782 -1.8,0.985 -0.589,0.361 -3.582,1.727 -6.46,2.949 -0.803,0.341 -2.153,0.749 -3,0.908 -0.847,0.159 -2.119,0.53 -2.827,0.826 -0.708,0.295 -1.878,0.538 -2.6,0.54 -0.722,0.001 -2.843,0.376 -4.713,0.831 -3.147,0.767 -4.696,0.834 -20.8,0.898 l -17.4,0.068 -0.253,12.4 c -0.535,26.213 -1.17,41.019 -1.973,46 -0.426,2.64 -0.775998,5.61 -0.778998,6.6 -0.002,0.99 -0.253,2.734 -0.557,3.876 -0.667,2.506 0.048,3.615 2.047998,3.18 9.031,-1.964 19.19,-2.599 46.216,-2.889 l 23.103,-0.247 0.197,-0.86 c 0.108,-0.473 0.262,-7.79 0.341,-16.26 0.145,-15.511 1.071,-29.028 2.125,-31 0.234,-0.44 0.547,-1.467 0.694,-2.283 0.255,-1.409 1.183,-3.887 2.442,-6.517 0.316,-0.66 0.764,-1.65 0.995,-2.2 0.231,-0.55 0.856,-1.72 1.39,-2.6 0.533,-0.88 1.151,-1.995 1.372,-2.478 0.749,-1.635 5.936,-8.808 7.898,-10.922 4.347,-4.685 8.193,-8.4 8.696,-8.4 0.661,0 3.105,2.359 6.045,5.835 1.1,1.301 2.294,2.635 2.654,2.965 0.36,0.33 1.35,1.502 2.2,2.604 0.85,1.102 1.872,2.362 2.27,2.8 1.301,1.43 3.876,4.903 3.876,5.227 0,0.175 0.344,0.689 0.765,1.143 0.421,0.454 1.204,1.657 1.74,2.673 0.536,1.015 1.272,2.27 1.635,2.789 0.363,0.518 0.66,1.203 0.66,1.522 0,0.318 0.244,0.863 0.543,1.211 0.298,0.347 0.738,1.351 0.976,2.231 0.238,0.88 0.725,2.5 1.082,3.6 2.527,7.791 3.105,13.378 3.391,32.8 0.129,8.8 0.274,16.028 0.322,16.062 0.047,0.034 9.581,0.16 21.186,0.28 20.758,0.214 30.38,0.596 36.7,1.454 1.76,0.239 4.82,0.598 6.8,0.797 1.98,0.2 4.144,0.477 4.809,0.617 1.802,0.379 2.644,-0.704 2.183,-2.81 -1.838,-8.399 -3.024,-26.894 -3.538,-55.2 l -0.254,-14 -20.2,-0.241 c -12.589,-0.151 -21.255,-0.421 -23,-0.716 -1.54,-0.261 -3.97,-0.632 -5.4,-0.824 -2.624,-0.352 -5.595,-1.202 -7.8,-2.231 -0.66,-0.308 -1.688,-0.674 -2.284,-0.813 -0.596,-0.14 -1.293,-0.506 -1.549,-0.814 -0.256,-0.309 -0.779,-0.561 -1.162,-0.561 -0.383,0 -1.155,-0.36 -1.714,-0.8 -0.56,-0.44 -1.169,-0.8 -1.354,-0.801 -0.185,0 -1.374,-0.72 -2.641,-1.6 -1.268,-0.879 -2.422,-1.599 -2.567,-1.599 -0.144,0 -0.547,-0.273 -0.895,-0.607 -0.349,-0.334 -1.723,-1.459 -3.054,-2.5 -1.331,-1.041 -2.99,-2.478 -3.687,-3.193 -0.696,-0.715 -1.428,-1.3 -1.627,-1.3 -0.62,0 -5.266,-5.18 -5.266,-5.872 0,-0.655 0.5,-1.165 4.967,-5.063 8.453,-7.376 12.126,-10.265 13.051,-10.265 0.21,0 0.382,-0.151 0.382,-0.335 0,-0.413 4.855,-3.562 6.642,-4.308 0.717,-0.3 1.408,-0.714 1.535,-0.92 0.128,-0.207 0.758,-0.491 1.4,-0.632 0.642,-0.141 1.371,-0.501 1.618,-0.799 0.248,-0.299 1.202,-0.67 2.119,-0.825 0.918,-0.155 2.032,-0.508 2.477,-0.784 0.445,-0.277 1.61,-0.622 2.589,-0.767 0.979,-0.146 1.99,-0.439 2.246,-0.651 0.256,-0.213 2.605,-0.66 5.22,-0.995 2.615,-0.335 5.024,-0.738 5.354,-0.896 0.33,-0.159 8.25,-0.378 17.6,-0.488 l 17,-0.2 0.244,-15.6 c 0.135,-8.58 0.448,-19.02 0.696,-23.2 1.051,-17.7 1.235,-20.231 1.807,-24.8 0.543,-4.341 0.791,-7.54 0.69,-8.9 -0.036,-0.491 -0.854,-0.556 -2.837,-0.224"
       stroke="none"
       fill="#f9fafa"
       fill-rule="evenodd"
       style="fill:#ffffff" />
  </g>
</svg>
