<?xml version="1.0" encoding="UTF-8" standalone="no"?>
<svg
   xmlns:dc="http://purl.org/dc/elements/1.1/"
   xmlns:cc="http://creativecommons.org/ns#"
   xmlns:rdf="http://www.w3.org/1999/02/22-rdf-syntax-ns#"
   xmlns:svg="http://www.w3.org/2000/svg"
   xmlns="http://www.w3.org/2000/svg"
   id="svg4582"
   version="1.1"
   viewBox="0 0 24 24"
   role="img">
  <metadata
     id="metadata4588">
    <rdf:RDF>
      <cc:Work
         rdf:about="">
        <dc:format>image/svg+xml</dc:format>
        <dc:type
           rdf:resource="http://purl.org/dc/dcmitype/StillImage" />
        <dc:title>Google Chrome icon</dc:title>
      </cc:Work>
    </rdf:RDF>
  </metadata>
  <defs
     id="defs4586" />
  <title
     id="title4578">Google Chrome icon</title>
  <g
     id="Group_2"
     data-name="Group 2"
     transform="matrix(0.13981848,0,0,0.13981848,-141.80033,-98.38669)">
    <g
       style="fill:#eeeeeeff;fill-opacity:1"
       id="webOS_OSE_logo_gray"
       transform="translate(1015,769.215)">
      <g
         style="fill:#eeeeeeff;fill-opacity:1"
         id="Group_1"
         data-name="Group 1">
        <path
           style="fill:#eeeeeeff;fill-opacity:1"
           id="Path_1"
           data-name="Path 1"
           d="m 76.937,28.38 c 0,8.854 6.088,13.281 14.947,13.281 9.964,0 14.949,-3.873 14.949,-10.515 v 0 c 0,-7.627 -4.985,-9.227 -14.949,-12.059 C 85.005,17.276 81.029,15.48 81.029,11.135 v 0 c 0,-5.077 3.806,-7.431 10.8,-7.431 h -0.006 c 6.57,0 10.906,2.295 10.906,9.184 h 2.991 c 0,-8.852 -5.539,-12.174 -13.842,-12.174 -8.859,0 -13.84,3.322 -13.84,9.96 0,6.463 4.981,8.966 13.837,11.49 7.35,2.031 11.963,2.936 11.963,8.983 0,5.059 -4.373,7.527 -11.993,7.527 H 91.84 c -6.825,0 -11.913,-3.063 -11.913,-10.291 z"
           transform="translate(63.913,-0.712)" />
        <path
           style="fill:#eeeeeeff;fill-opacity:1"
           id="Path_2"
           data-name="Path 2"
           d="M 74.046,0.713 A 20.473,20.473 0 1 0 94.532,21.186 20.477,20.477 0 0 0 74.046,0.713 m 0,37.961 A 17.488,17.488 0 1 1 91.54,21.188 17.491,17.491 0 0 1 74.049,38.674"
           transform="translate(44.101,-0.711)" />
        <path
           style="fill:#eeeeeeff;fill-opacity:1"
           id="Path_3"
           data-name="Path 3"
           d="m 50.76,11.527 c -4.183,0 -7.244,1.585 -9.192,4.5 V 1.012 h -2.987 v 25.454 h 2.988 c 0,-7.525 3.342,-11.956 9.192,-11.956 5.85,0 9.192,4.431 9.192,11.956 0,7.525 -3.343,11.956 -9.193,11.956 -4.407,0 -7.39,-2.516 -8.591,-6.977 h -3.1 c 1.343,6.35 5.434,9.96 11.7,9.96 7.751,0 12.179,-5.532 12.179,-14.94 0,-9.408 -4.429,-14.94 -12.179,-14.94"
           transform="translate(31.402,-0.458)" />
        <path
           style="fill:#eeeeeeff;fill-opacity:1"
           id="Path_4"
           data-name="Path 4"
           d="m 35.179,33.567 c -5.85,0 -9.194,-4.416 -9.194,-11.924 h 21.37 c 0,-9.408 -4.427,-14.94 -12.178,-14.94 -7.751,0 -12.177,5.532 -12.177,14.94 0,9.408 4.427,14.94 12.179,14.94 6.262,0 10.354,-3.612 11.7,-9.96 h -3.112 c -1.2,4.44 -4.185,6.945 -8.588,6.945 m 0,-23.851 c 5.024,0 8.2,3.261 8.989,8.937 H 26.187 c 0.794,-5.676 3.969,-8.937 8.992,-8.937"
           transform="translate(18.196,4.366)" />
        <path
           style="fill:#eeeeeeff;fill-opacity:1"
           id="Path_5"
           data-name="Path 5"
           d="m 13.139,35.777 7.607,-24.13 7.61,24.13 h 3.361 L 40.79,7 H 37.657 L 30.036,31.168 22.416,7 H 19.074 L 11.456,31.168 3.835,7 H 0.7 l 9.075,28.777 z"
           transform="translate(-0.703,4.619)" />
      </g>
    </g>
    <rect
       style="fill:none"
       y="0"
       x="0"
       id="Rectangle_1"
       data-name="Rectangle 1"
       width="174"
       height="43"
       transform="translate(1013,768)" />
  </g>
</svg>
