<svg width="274" height="58" xmlns="http://www.w3.org/2000/svg" xmlns:svg="http://www.w3.org/2000/svg" enable-background="new 0 0 274 58" version="1.1" xml:space="preserve">
 <g class="layer">
  <title>Layer 1</title>
  <path d="m5.01,20.34l32.52,-15.84c0,0 11.12,-4.17 20.02,0c0,0 9.58,4.31 14.59,16.68c0,0 -10.7,6.39 -11.81,6.67c0,0 -8.9,4.91 -16.68,-5.56l7.78,-4.45c0,0 2.22,-0.68 -1.39,-2.28c0,0 -4.72,-1.42 -9.73,1.17l-15.56,7.23c0,0 -8.34,3.89 -19.73,-3.62l-0.01,0z" fill="#eeeeeeff" id="svg_2"/>
  <path d="m78.25,37.9l-32.52,15.84c0,0 -11.12,4.16 -20.01,0c0,0 -9.59,-4.31 -14.59,-16.68c0,0 10.7,-6.39 11.81,-6.67c0,0 8.9,-4.91 16.68,5.56l-7.78,4.45c0,0 -2.23,0.68 1.39,2.28c0,0 4.72,1.42 9.72,-1.17l15.57,-7.23c0,0 8.34,-3.89 19.73,3.62z" fill="#eeeeeeff" id="svg_3"/>
  <rect fill="#eeeeeeff" height="5.56" id="svg_4" transform="matrix(1 0 0 1 0 0)" width="29.09" x="90.32" y="19.65"/>
  <rect fill="#eeeeeeff" height="5.56" id="svg_5" transform="matrix(1 0 0 1 0 0)" width="26.55" x="159.69" y="19.65"/>
  <rect fill="#eeeeeeff" height="5.56" id="svg_6" transform="matrix(1 0 0 1 0 0)" width="26.55" x="159.69" y="45.02"/>
  <rect fill="#eeeeeeff" height="5.56" id="svg_7" transform="matrix(1 0 0 1 0 0)" width="24.81" x="104.59" y="45.02"/>
  <rect fill="#eeeeeeff" height="30.92" id="svg_8" transform="matrix(1 0 0 1 0 0)" width="11.67" x="132.31" y="19.65"/>
  <rect fill="#eeeeeeff" height="40.16" id="svg_9" transform="matrix(1 0 0 1 0 0)" width="11.67" x="174.56" y="10.41"/>
  <rect fill="#eeeeeeff" height="7.74" id="svg_10" transform="matrix(1 0 0 1 0 0)" width="11.67" x="132.31" y="10.41"/>
  <path d="m160.57,45.11c-2.78,0 -5.03,-2.25 -5.03,-5.03l0,-9.93c0,-2.78 2.25,-5.03 5.03,-5.03l13.63,0c-0.98,-3.17 -3.93,-5.47 -7.43,-5.47l-12.71,0c-4.3,0 -7.78,3.49 -7.78,7.79l0,15.35c0,4.3 3.48,7.78 7.78,7.78l12.71,0c3.49,0 6.45,-2.3 7.43,-5.46l-13.63,0z" fill="#eeeeeeff" id="svg_11" transform="matrix(1 0 0 1 0 0)"/>
  <path d="m128.49,25.95c2.96,-6.57 -6.3,-6.3 -6.3,-6.3l-4.54,0l-4.54,4.82l-21.01,19.47l0,0c0,0 -2.06,1.9 -1.65,3.67c1.04,3.38 6.26,2.96 6.26,2.96l8.99,0l4.44,-5.55c-1.48,0 -1.38,-1.28 -1.38,-1.28l19.73,-17.79z" fill="#eeeeeeff" id="svg_12" transform="matrix(1 0 0 1 0 0)"/>
  <path d="m219.51,19.38l-23.62,0c-4.3,0 -7.78,3.48 -7.78,7.78l0,15.65c0,4.3 3.48,7.78 7.78,7.78l23.62,0c4.3,0 7.78,-3.49 7.78,-7.78l0,-15.65c0,-4.3 -3.48,-7.78 -7.78,-7.78zm-2.02,21.38l-14.67,4.55c-1.55,0.48 -3.2,-0.39 -3.68,-1.94l-3.17,-10.22c-0.48,-1.56 0.39,-3.2 1.94,-3.68l14.67,-4.55c1.55,-0.48 3.2,0.39 3.68,1.94l3.17,10.22c0.48,1.56 -0.39,3.2 -1.94,3.68z" fill="#eeeeeeff" id="svg_13" transform="matrix(1 0 0 1 0 0)"/>
  <path d="m261.2,19.38l-23.62,0c-4.3,0 -7.79,3.48 -7.79,7.78l0,15.65c0,4.3 3.49,7.78 7.79,7.78l23.62,0c4.3,0 7.78,-3.49 7.78,-7.78l0,-15.65c0,-4.3 -3.48,-7.78 -7.78,-7.78zm-2.02,21.38l-14.67,4.55c-1.55,0.48 -3.2,-0.39 -3.68,-1.94l-3.17,-10.22c-0.48,-1.56 0.39,-3.2 1.94,-3.68l14.67,-4.55c1.55,-0.48 3.2,0.39 3.68,1.94l3.17,10.22c0.48,1.56 -0.39,3.2 -1.94,3.68z" fill="#eeeeeeff" id="svg_14" transform="matrix(1 0 0 1 0 0)"/>
 </g>
</svg>
